<?xml version="1.0" encoding="UTF-8" standalone="no"?>
<svg
   xmlns:svg="http://www.w3.org/2000/svg"
   xmlns="http://www.w3.org/2000/svg"
   version="1.1"
   width="620.27502"
   height="213.16409"
   id="svg3227">
  <defs
     id="defs3229" />
  <g
     transform="translate(-32.71964,-248.63728)"
     id="layer1">
    <path
       d="m 631.16565,427.69528 c 0.47105,1.42299 0.61011,2.23767 0.67292,4.41074 2.24305,-3.39419 5.49548,-5.15544 9.56886,-5.15544 4.27526,0 7.73405,1.83123 9.29073,4.9504 1.09012,2.10309 1.29648,3.52608 1.29648,9.49798 l 0,18.5227 -6.65289,0 0,-17.43616 c 0,-7.46172 -1.35929,-9.63479 -5.96652,-9.63479 -4.6835,0 -7.12394,3.46101 -7.12394,9.90622 l 0,17.16473 -6.64841,0 0,-20.96177 c 0,-7.87358 0,-8.14544 -0.88824,-11.26461 l 6.45101,0 m -15.19892,0 0,32.22638 -6.78299,0 0,-32.22638 6.78299,0 z m 0.81199,-9.63436 c 0,2.58084 -1.62397,4.27748 -4.13619,4.27748 -2.64681,0 -4.27526,-1.63158 -4.27526,-4.2057 0,-2.37452 1.83482,-4.20575 4.27526,-4.20575 2.44492,0 4.13619,1.69442 4.13619,4.13397 m -24.01413,41.86074 6.78698,0 0,-45.52366 -6.78698,0 0,45.52366 z m -17.84572,-32.22638 c 0.33628,1.5598 0.47104,3.25422 0.47104,5.09083 0,0.33843 0,0.9461 -0.0628,1.69438 2.37315,-5.15543 5.15005,-7.52991 8.8152,-7.52991 0.94657,0 1.83033,0.20134 3.18514,0.6801 l 0,6.7148 c -1.83034,-1.0215 -3.11785,-1.42436 -4.67453,-1.42436 -4.6162,0 -6.98935,4.20574 -6.98935,12.27714 l 0,14.7234 -6.7157,0 0,-21.77871 c 0,-7.3285 -0.0718,-7.52991 -0.40823,-10.44767 l 6.37924,0 m -20.08878,12.61715 c -0.67292,-5.4237 -3.11784,-8.13959 -7.32132,-8.13959 -4.13619,0 -6.6529,2.71589 -7.73853,8.13959 l 15.05985,0 z m -15.26173,4.95402 c 0.27383,6.51203 3.2614,10.03765 8.54603,10.03765 3.25691,0 5.3609,-1.28795 6.78748,-4.20571 l 6.0383,0.41182 c -1.83482,6.03155 -6.44654,9.29116 -13.02765,9.29116 -9.08885,0 -15.05986,-6.58022 -15.05986,-16.62145 0,-10.44771 5.89923,-17.36618 14.79069,-17.36618 8.54603,0 13.97422,6.58022 13.97422,16.95974 0,0.27132 0,0.81467 -0.0718,1.49297 l -21.97743,0 m -31.33993,8.88651 c 5.07827,0 6.98038,-0.20313 8.74791,-1.01834 2.16678,-0.9497 3.4543,-3.3906 3.4543,-6.51336 0,-3.18603 -1.55668,-5.62874 -4.20348,-6.64708 -1.83033,-0.67784 -3.45879,-0.81288 -7.86863,-0.81288 l -4.33807,0 0,14.99166 4.20797,0 z m -0.20636,-20.62216 c 7.52768,0 10.30907,-1.83123 10.30907,-6.71706 0,-2.57592 -1.28751,-4.68213 -3.3242,-5.56187 -1.55668,-0.61011 -3.25692,-0.81647 -7.39311,-0.81647 l -3.59337,0 0,13.0954 4.00161,0 z m -0.54282,-18.85915 c 5.69735,0 8.27238,0.26952 10.7846,1.08653 4.34255,1.55758 6.98935,5.35688 6.98935,10.24268 0,5.15543 -2.30586,8.13779 -7.46488,9.76761 6.72019,1.5616 9.90981,5.22405 9.90981,11.32921 0,5.49369 -3.18962,10.10763 -8.01219,11.66746 -3.04606,0.94969 -5.28911,1.15652 -13.15774,1.15652 l -9.3625,0 0,-45.25001 10.31355,0 m -70.83111,13.02363 c 0.54282,1.42299 0.6774,2.37447 0.6774,4.34255 2.23857,-3.52745 5.2936,-5.08725 9.56886,-5.08725 4.40536,0 7.32581,1.69439 9.08437,5.42909 2.57951,-3.7993 5.70183,-5.42909 10.24177,-5.42909 4.07787,0 7.19572,1.62979 8.61781,4.47714 1.02283,2.03669 1.15293,2.91776 1.15293,9.29115 l 0,19.20279 -6.64392,0 0,-19.13054 c 0,-6.17378 -1.28751,-7.94041 -5.83194,-7.94041 -4.41881,0 -6.65289,2.91776 -6.65289,8.48186 l 0,18.58909 -6.64841,0 0,-18.38585 c 0,-4.20574 -0.12992,-5.08724 -0.74469,-6.24376 -0.88377,-1.55984 -2.64681,-2.44134 -4.95266,-2.44134 -4.61621,0 -6.85029,2.85316 -6.85029,8.75329 l 0,18.31766 -6.6484,0 0,-23.47309 c 0,-5.56367 -0.0718,-6.37882 -0.81647,-8.75329 l 6.44653,0 m -35.00957,0 0,18.99596 c 0,5.83553 1.70024,8.07499 6.17289,8.07499 4.54891,0 6.91757,-3.18919 6.91757,-9.36297 l 0,-17.70798 6.64841,0 0,22.32016 c 0,7.3949 0,7.26032 0.81647,9.90622 l -6.37924,0 c -0.40375,-1.15652 -0.61011,-2.24305 -0.67292,-4.0043 -2.17576,3.39103 -4.75078,4.749 -9.02604,4.749 -4.13619,0 -7.86863,-1.96761 -9.63616,-5.15723 -1.01386,-1.83123 -1.48938,-4.47534 -1.48938,-8.61648 l 0,-19.19737 6.6484,0 m -24.42863,0 c 0.34166,1.5598 0.47283,3.25422 0.47283,5.09083 0,0.33843 0,0.9461 -0.0646,1.69438 2.37811,-5.15543 5.15633,-7.52991 8.81699,-7.52991 0.95106,0 1.83034,0.20134 3.18963,0.6801 l 0,6.7148 c -1.83034,-1.0215 -3.11785,-1.42436 -4.67901,-1.42436 -4.61125,0 -6.98577,4.20574 -6.98577,12.27714 l 0,14.7234 -6.71702,0 0,-21.77871 c 0,-7.3285 -0.07,-7.52991 -0.40644,-10.44767 l 6.37339,0 m -13.16044,0 -0.07,5.29224 -7.12347,0 -0.2017,14.24697 c 0,1.28798 -0.07,2.30453 -0.07,2.50953 0,4.00071 0.74828,4.95223 3.59786,4.95223 1.35613,0 2.98774,-0.33808 4.61214,-1.01835 l -0.07,5.63049 c -2.44134,0.94973 -4.27257,1.28798 -6.71164,1.28798 -5.56414,0 -8.28003,-2.91776 -8.28003,-8.95473 0,-0.27132 0.07,-2.23767 0.13997,-4.40715 l 0.40332,-14.24697 -4.95044,0 0.07,-5.29224 5.08724,0 0.20493,-9.22613 6.43982,0 -0.13136,9.22613 7.05349,0 m -45.79326,0 c 0.47642,1.42299 0.60788,2.23767 0.67786,4.41074 2.2399,-3.39419 5.49412,-5.15544 9.56481,-5.15544 4.27034,0 7.73136,1.83123 9.29119,4.9504 1.08654,2.10309 1.29333,3.52608 1.29333,9.49798 l 0,18.5227 -6.65243,0 0,-17.43616 c 0,-7.46172 -1.35258,-9.63479 -5.97011,-9.63479 -4.67901,0 -7.1235,3.46101 -7.1235,9.90622 l 0,17.16473 -6.64705,0 0,-20.96177 c 0,-7.87358 0,-8.14544 -0.87927,-11.26461 l 6.44517,0 m -19.74604,12.61715 c -0.6801,-5.4237 -3.11917,-8.13959 -7.32492,-8.13959 -4.14067,0 -6.6502,2.71589 -7.73673,8.13959 l 15.06165,0 z m -15.26306,4.95402 c 0.27132,6.51203 3.25555,10.03765 8.54603,10.03765 3.25601,0 5.3591,-1.28795 6.78701,-4.20571 l 6.03697,0.41182 c -1.83123,6.03155 -6.44879,9.29116 -13.02901,9.29116 -9.08569,0 -15.05627,-6.58022 -15.05627,-16.62145 0,-10.44771 5.90013,-17.36618 14.78487,-17.36618 8.55142,0 13.97512,6.58022 13.97512,16.95974 0,0.27132 0,0.81467 -0.0646,1.49297 l -21.98012,0 m -11.06274,-30.5948 0,4.88404 -21.97879,34.32362 21.37048,0 0,6.04235 -29.64688,0 0,-5.49907 21.77868,-33.85082 -20.01205,0 0,-5.90012 28.48856,0 m 379.78781,-58.2754 0,4.95402 -16.89467,21.77329 16.82738,0 0,5.49728 -24.69601,0 0,-5.15587 16.61653,-21.57188 -15.05537,0 0,-5.49684 23.20214,0 m -28.7021,0 -0.0628,5.29048 -7.12393,0 -0.20636,14.2465 c 0,1.28798 -0.0675,2.30453 -0.0675,2.51132 0,3.99892 0.74918,4.95044 3.59785,4.95044 1.35929,0 2.98326,-0.33807 4.61172,-1.01612 l -0.0671,5.62827 c -2.44044,0.95152 -4.27526,1.29336 -6.72019,1.29336 -5.56277,0 -8.27238,-2.91776 -8.27238,-8.95965 0,-0.26665 0.0628,-2.23814 0.13459,-4.40762 l 0.40823,-14.2465 -4.95714,0 0.0718,-5.29048 5.08725,0 0.20636,-9.22835 6.44204,0 -0.13458,9.22835 7.05216,0 m -32.01733,32.22459 6.78349,0 0,-45.52184 -6.78349,0 0,45.52184 z m -30.66253,-16.07641 c 0,6.91668 3.31972,11.53065 8.20508,11.53065 4.8136,0 8.1378,-4.6808 8.1378,-11.53065 0,-6.85387 -3.3242,-11.60286 -8.1378,-11.60286 -4.88536,0 -8.20508,4.679 -8.20508,11.60286 z m 23.19316,0 c 0,9.89904 -6.24017,16.95748 -14.98808,16.95748 -8.81968,0 -15.06434,-7.05844 -15.06434,-16.95748 0,-9.90622 6.24466,-17.02969 15.06434,-17.02969 8.74791,0 14.98808,7.12347 14.98808,17.02969 m -57.19332,-29.44543 0,16.96286 c 2.37764,-2.91733 5.42819,-4.41253 9.16063,-4.41253 4.14068,0 7.66227,1.69664 9.29521,4.6144 1.15742,1.96582 1.49387,4.0707 1.49387,9.83444 l 0,18.52267 -6.6484,0 0,-17.4366 c 0,-7.18807 -1.55668,-9.63256 -6.17737,-9.63256 -4.61172,0 -7.12394,3.52565 -7.12394,9.9744 l 0,17.09476 -6.64392,0 0,-45.52184 6.64392,0 m -55.42582,13.29725 c 0.54281,1.42615 0.6774,2.37451 0.6774,4.34032 2.23856,-3.52744 5.2936,-5.08724 9.56437,-5.08724 4.41433,0 7.32581,1.69664 9.09334,5.42908 2.57951,-3.7993 5.69735,-5.42908 10.24178,-5.42908 4.06889,0 7.19122,1.62978 8.6178,4.47936 1.01386,2.03626 1.14845,2.91776 1.14845,9.29119 l 0,19.20096 -6.64392,0 0,-19.13098 c 0,-6.17378 -1.28752,-7.93818 -5.83643,-7.93818 -4.40984,0 -6.6484,2.91776 -6.6484,8.48143 l 0,18.58773 -6.64841,0 0,-18.38629 c 0,-4.20574 -0.13459,-5.08724 -0.74918,-6.23838 -0.87928,-1.56295 -2.64232,-2.44449 -4.94818,-2.44449 -4.61171,0 -6.85028,2.85094 -6.85028,8.75286 l 0,18.3163 -6.64841,0 0,-23.47353 c 0,-5.56367 -0.0718,-6.37655 -0.81647,-8.75106 l 6.44654,0 m -22.04921,32.22459 6.78697,0 0,-45.52184 -6.78697,0 0,45.52184 z m -14.18058,-19.60428 c -0.68189,-5.42683 -3.12233,-8.14498 -7.32581,-8.14498 -4.14067,0 -6.64841,2.71815 -7.73853,8.14498 l 15.06434,0 z m -15.26621,4.95086 c 0.27347,6.50981 3.26139,10.0408 8.55051,10.0408 3.25243,0 5.35641,-1.28794 6.78299,-4.2057 l 6.0383,0.40687 c -1.83033,6.03876 -6.44205,9.29252 -13.02765,9.29252 -9.08885,0 -15.05985,-6.58022 -15.05985,-16.62102 0,-10.44767 5.90371,-17.36615 14.7862,-17.36615 8.555,0 13.97422,6.58022 13.97422,16.95748 0,0.27383 0,0.8169 -0.0628,1.4952 l -21.98191,0 m -21.91463,-11.87246 0,-18.72457 6.98487,0 0,45.25045 -6.98487,0 0,-20.7608 -19.53609,0 0,20.7608 -6.99204,0 0,-45.25045 6.99204,0 0,18.72457 19.53609,0"
       id="path66"
       style="fill:#00adef;fill-opacity:1;fill-rule:nonzero;stroke:none" />
    <path
       d="m 33.71964,249.63728 0,138.95711 30.281209,0 0,-57.08569 42.730151,0 0,57.08569 30.28121,0 0,-138.95711 -30.28121,0 0,55.4034 -42.730151,0 0,-55.4034 -30.281209,0 z m 107.89083,0 0,26.46802 54.95478,0 -54.95478,84.56308 0,27.92601 101.94673,0 30.39337,0 0,-26.69233 -30.39337,0 -69.31032,0 57.5343,-88.03981 0,-24.22497 -90.17071,0 z m 101.94673,0 0,107.55437 30.39337,0 0,-25.68295 26.35586,0 c 11.41355,0 15.47707,7.84709 15.47707,15.1406 0,7.04994 -4.05142,15.25276 -15.47707,15.25276 l -21.64545,0 0,26.69233 25.12218,0 c 26.11944,0 42.28155,-15.29985 42.28155,-39.92634 0,-18.87663 -10.80344,-25.55867 -16.59859,-29.15968 l -3.25243,-2.1309 3.25243,-2.1309 c 5.47304,-3.74095 14.57984,-12.19144 14.57984,-26.46802 0,-24.48606 -16.14639,-39.14127 -43.29092,-39.14127 l -57.19784,0 z m 30.39337,26.69233 24.56142,0 c 11.26418,0 15.25276,7.34242 15.25276,14.24338 0,6.89916 -3.98858,14.35554 -15.25276,14.35554 l -24.56142,0 0,-28.59892 z"
       id="path72"
       style="fill:#135ca1;fill-opacity:1;fill-rule:nonzero;stroke:none" />
  </g>
</svg>
