<svg id="Layer_1" data-name="Layer 1" xmlns="http://www.w3.org/2000/svg" viewBox="0 0 366.51 177.44"><defs><style>.cls-1{fill:#fba919;}.cls-2{fill:#666766;}.cls-3{fill:#91bf3e;}</style></defs><title>Logov3</title><path class="cls-1" d="M194.11,389.21l-35.78-20.67V324.07a3.5,3.5,0,0,0-7,0v44.47l-35.79,20.67a3.48,3.48,0,0,0-1.75,3v43.34a3.48,3.48,0,0,0,1.75,3l37.54,21.68a3.5,3.5,0,0,0,1.75.46,3.55,3.55,0,0,0,1.75-.46l37.53-21.68a3.48,3.48,0,0,0,1.75-3V392.24A3.48,3.48,0,0,0,194.11,389.21Zm-5.25,44.35-34,19.65-34-19.65v-39.3l34-19.65,34,19.65Z" transform="translate(-88.98 -320.57)"/><path class="cls-2" d="M254.59,381.86a12.43,12.43,0,0,1-.07,1.48,3.27,3.27,0,0,1-.24,1,1.44,1.44,0,0,1-.36.52.71.71,0,0,1-.47.18H241.06v10.2h11.63a.79.79,0,0,1,.47.14,1.27,1.27,0,0,1,.36.5,3.19,3.19,0,0,1,.24.94,15.37,15.37,0,0,1,0,2.93,3.53,3.53,0,0,1-.24,1,1.34,1.34,0,0,1-.36.55.81.81,0,0,1-.47.16H241.06v14.12a.91.91,0,0,1-.18.56,1.42,1.42,0,0,1-.63.39,5.55,5.55,0,0,1-1.19.25,15.74,15.74,0,0,1-1.87.09,16,16,0,0,1-1.86-.09,5.42,5.42,0,0,1-1.19-.25,1.55,1.55,0,0,1-.63-.39.92.92,0,0,1-.19-.56V381.12a2.34,2.34,0,0,1,.66-1.86,2.4,2.4,0,0,1,1.63-.57h17.84a.81.81,0,0,1,.47.16,1.4,1.4,0,0,1,.36.53,3.41,3.41,0,0,1,.24,1A12.79,12.79,0,0,1,254.59,381.86Z" transform="translate(-88.98 -320.57)"/><path class="cls-2" d="M277.21,391.9c0,.71,0,1.28-.06,1.73a5.34,5.34,0,0,1-.18,1.06,1.06,1.06,0,0,1-.3.53.84.84,0,0,1-.49.14,1.53,1.53,0,0,1-.52-.1L275,395c-.25-.08-.52-.15-.81-.22a4.13,4.13,0,0,0-1-.1A3.18,3.18,0,0,0,272,395a5,5,0,0,0-1.27.77,9.29,9.29,0,0,0-1.38,1.41,22.38,22.38,0,0,0-1.54,2.17v16.29a.79.79,0,0,1-.17.51,1.23,1.23,0,0,1-.6.36,4.6,4.6,0,0,1-1.13.22,17.19,17.19,0,0,1-1.79.08,17,17,0,0,1-1.78-.08,4.6,4.6,0,0,1-1.13-.22,1.18,1.18,0,0,1-.6-.36.79.79,0,0,1-.18-.51V389.47a.9.9,0,0,1,.15-.51,1.06,1.06,0,0,1,.53-.37,4.64,4.64,0,0,1,1-.22c.4,0,.9-.07,1.51-.07s1.14,0,1.55.07a3.82,3.82,0,0,1,.95.22,1,1,0,0,1,.48.37.9.9,0,0,1,.15.51v3.26a20.42,20.42,0,0,1,1.93-2.42,11.13,11.13,0,0,1,1.73-1.51A5.68,5.68,0,0,1,272,388a6.67,6.67,0,0,1,1.64-.22,8,8,0,0,1,.82.05c.3,0,.6.08.91.14a5.83,5.83,0,0,1,.82.24,1.63,1.63,0,0,1,.52.28.9.9,0,0,1,.23.32,2.67,2.67,0,0,1,.13.48,7.06,7.06,0,0,1,.09.92C277.2,390.65,277.21,391.2,277.21,391.9Z" transform="translate(-88.98 -320.57)"/><path class="cls-2" d="M302.7,415.69a.78.78,0,0,1-.3.65,2,2,0,0,1-.92.34,13.86,13.86,0,0,1-1.86.1,14,14,0,0,1-1.92-.1,1.65,1.65,0,0,1-.85-.34.87.87,0,0,1-.25-.65v-2.08a11.87,11.87,0,0,1-3.67,2.7,10.78,10.78,0,0,1-4.59,1,12.5,12.5,0,0,1-3.82-.55,8.51,8.51,0,0,1-3-1.61,7.19,7.19,0,0,1-2-2.65,9,9,0,0,1-.7-3.69,8.43,8.43,0,0,1,.89-4,7.32,7.32,0,0,1,2.67-2.78,13,13,0,0,1,4.41-1.63,31.63,31.63,0,0,1,6.12-.53h2.55v-1.58a8.09,8.09,0,0,0-.25-2.15,3.52,3.52,0,0,0-.82-1.54,3.44,3.44,0,0,0-1.52-.91,8.35,8.35,0,0,0-2.36-.29,12.31,12.31,0,0,0-3.3.41,18.87,18.87,0,0,0-2.56.91c-.74.33-1.36.63-1.86.91a2.76,2.76,0,0,1-1.22.41.87.87,0,0,1-.57-.21,1.58,1.58,0,0,1-.41-.59,4.41,4.41,0,0,1-.25-.93,9.18,9.18,0,0,1-.08-1.23,5.53,5.53,0,0,1,.14-1.44,2.26,2.26,0,0,1,.56-.95,5.46,5.46,0,0,1,1.43-.94,17.06,17.06,0,0,1,2.41-.95,23.17,23.17,0,0,1,3-.72,20.37,20.37,0,0,1,3.35-.28,20,20,0,0,1,5.26.6,8.86,8.86,0,0,1,3.59,1.85,7.15,7.15,0,0,1,2.05,3.21,15,15,0,0,1,.65,4.66Zm-7.24-11.19h-2.81a14.81,14.81,0,0,0-3,.27,5.78,5.78,0,0,0-2.05.79,3.26,3.26,0,0,0-1.16,1.27,3.92,3.92,0,0,0-.36,1.72,3.25,3.25,0,0,0,1,2.57,4.11,4.11,0,0,0,2.88.94,5.38,5.38,0,0,0,2.86-.79,12,12,0,0,0,2.65-2.31Z" transform="translate(-88.98 -320.57)"/><path class="cls-2" d="M333.61,391.29a5,5,0,0,1-.33,2.08c-.21.45-.48.67-.79.67h-3.07a4.35,4.35,0,0,1,.92,1.6,6.45,6.45,0,0,1,.28,1.86,10.35,10.35,0,0,1-.76,4.06,8.09,8.09,0,0,1-2.19,3,9.69,9.69,0,0,1-3.42,1.84,14.9,14.9,0,0,1-4.47.63,9,9,0,0,1-2.4-.31,6,6,0,0,1-1.76-.71,3.79,3.79,0,0,0-.63.9,2.48,2.48,0,0,0-.28,1.18,1.65,1.65,0,0,0,.75,1.39,3.79,3.79,0,0,0,2.09.6l6.36.23a15.57,15.57,0,0,1,4,.63,8.4,8.4,0,0,1,2.93,1.53,6.58,6.58,0,0,1,1.81,2.35,7.49,7.49,0,0,1,.63,3.14,8.09,8.09,0,0,1-.85,3.65,8.22,8.22,0,0,1-2.54,3,13.32,13.32,0,0,1-4.27,2,21.82,21.82,0,0,1-6,.73,26.69,26.69,0,0,1-5.7-.52A12.25,12.25,0,0,1,310,425.3a5.88,5.88,0,0,1-2.2-2.24,6,6,0,0,1-.69-2.85,6.73,6.73,0,0,1,1-3.53,8.48,8.48,0,0,1,1.19-1.54,12.49,12.49,0,0,1,1.61-1.41A4.92,4.92,0,0,1,309,411.9a4.86,4.86,0,0,1-.69-2.53,6.4,6.4,0,0,1,.79-3.15,10.05,10.05,0,0,1,2.05-2.57,7.74,7.74,0,0,1-1.64-2.46,9.08,9.08,0,0,1-.61-3.57,10,10,0,0,1,.8-4.09,8.69,8.69,0,0,1,2.25-3,9.8,9.8,0,0,1,3.42-1.9,14,14,0,0,1,4.4-.66,18,18,0,0,1,2.36.15,15.17,15.17,0,0,1,2.09.41h8.29c.33,0,.6.21.81.64A5.54,5.54,0,0,1,333.61,391.29Zm-7.74,27a2.28,2.28,0,0,0-1.05-2,5.52,5.52,0,0,0-2.9-.76l-5.25-.15a7.43,7.43,0,0,0-1.21,1.07,6.46,6.46,0,0,0-.74,1,3.08,3.08,0,0,0-.36.91,4.53,4.53,0,0,0-.09.91,2.39,2.39,0,0,0,1.48,2.22,9.22,9.22,0,0,0,4.17.77,10.31,10.31,0,0,0,2.82-.34,5.54,5.54,0,0,0,1.84-.89,3.32,3.32,0,0,0,1-1.25A3.75,3.75,0,0,0,325.87,418.33Zm-1.73-20.86a4.43,4.43,0,0,0-1.17-3.28,4.49,4.49,0,0,0-3.31-1.17,4.67,4.67,0,0,0-1.9.36,3.89,3.89,0,0,0-1.37,1,4,4,0,0,0-.8,1.47,5.56,5.56,0,0,0-.27,1.74,4.19,4.19,0,0,0,1.18,3.15,4.42,4.42,0,0,0,3.25,1.16,4.78,4.78,0,0,0,1.93-.36,3.65,3.65,0,0,0,1.36-1,4,4,0,0,0,.82-1.42A5,5,0,0,0,324.14,397.47Z" transform="translate(-88.98 -320.57)"/><path class="cls-2" d="M383.12,415.55a.94.94,0,0,1-.16.52,1.17,1.17,0,0,1-.59.39,6.51,6.51,0,0,1-1.13.23,14.45,14.45,0,0,1-1.78.09,14.21,14.21,0,0,1-1.76-.09,6.37,6.37,0,0,1-1.12-.23,1.23,1.23,0,0,1-.58-.39.82.82,0,0,1-.18-.52V384.7h-.06l-11,30.82a1.55,1.55,0,0,1-.38.63,1.9,1.9,0,0,1-.72.39,4.74,4.74,0,0,1-1.16.19c-.47,0-1,0-1.7,0a16.3,16.3,0,0,1-1.7-.08,4.47,4.47,0,0,1-1.15-.23,2,2,0,0,1-.72-.4,1.09,1.09,0,0,1-.35-.55L346.29,384.7h-.06v30.85a.87.87,0,0,1-.16.52,1.16,1.16,0,0,1-.6.39,6.94,6.94,0,0,1-1.13.23,14.16,14.16,0,0,1-1.77.09,14.32,14.32,0,0,1-1.76-.09,6.72,6.72,0,0,1-1.13-.23,1.14,1.14,0,0,1-.58-.39.87.87,0,0,1-.16-.52V381.77a3.09,3.09,0,0,1,.79-2.29,2.88,2.88,0,0,1,2.11-.79h5a11,11,0,0,1,2.31.22,4.54,4.54,0,0,1,1.67.73A4.27,4.27,0,0,1,352,381a9.7,9.7,0,0,1,.82,2.07l8.21,22.59h.11l8.5-22.53a11.67,11.67,0,0,1,.83-2.08,4.94,4.94,0,0,1,1.06-1.38,3.53,3.53,0,0,1,1.42-.75,7.69,7.69,0,0,1,1.9-.22h5.19a3.93,3.93,0,0,1,1.36.21,2.24,2.24,0,0,1,.94.6,2.67,2.67,0,0,1,.56,1,4.4,4.4,0,0,1,.19,1.31Z" transform="translate(-88.98 -320.57)"/><path class="cls-2" d="M422.43,413.73a9.74,9.74,0,0,1,.44,1.67,1,1,0,0,1-.23.92,1.84,1.84,0,0,1-1.14.38c-.55.05-1.3.08-2.26.08s-1.77,0-2.33,0a5.63,5.63,0,0,1-1.27-.17,1.15,1.15,0,0,1-.62-.37,1.93,1.93,0,0,1-.29-.61L412.18,408H397.94l-2.4,7.41a2.32,2.32,0,0,1-.31.69,1.26,1.26,0,0,1-.61.44,4.52,4.52,0,0,1-1.2.22q-.78.06-2,.06a19.07,19.07,0,0,1-2.11-.09,1.66,1.66,0,0,1-1.06-.42,1.18,1.18,0,0,1-.2-1,9.32,9.32,0,0,1,.44-1.64L400.14,380a3.06,3.06,0,0,1,.41-.81,1.42,1.42,0,0,1,.75-.46,5.71,5.71,0,0,1,1.42-.21c.6,0,1.4,0,2.4,0s2.07,0,2.75,0a7.14,7.14,0,0,1,1.6.21,1.46,1.46,0,0,1,.82.48,2.58,2.58,0,0,1,.42.88ZM405,385.93h0L399.64,402h10.75Z" transform="translate(-88.98 -320.57)"/><path class="cls-2" d="M454.75,413.7a9.19,9.19,0,0,1,.69,1.64.91.91,0,0,1-.19.94,2.23,2.23,0,0,1-1.28.41c-.61.06-1.47.09-2.56.09-.92,0-1.64,0-2.17-.06a6.13,6.13,0,0,1-1.24-.19,1.29,1.29,0,0,1-.66-.37,2,2,0,0,1-.36-.58l-7.11-13.68-7.09,13.68a2.66,2.66,0,0,1-.39.58,1.3,1.3,0,0,1-.65.37,6.5,6.5,0,0,1-1.26.19q-.81.06-2.13.06c-1,0-1.8,0-2.36-.09a1.73,1.73,0,0,1-1.12-.41.93.93,0,0,1-.12-.94,9.19,9.19,0,0,1,.73-1.64l9.08-16.55-8.44-15.56a10.58,10.58,0,0,1-.71-1.68.86.86,0,0,1,.14-.94,2.22,2.22,0,0,1,1.25-.38c.6,0,1.46-.07,2.58-.07.91,0,1.64,0,2.18.05a6.38,6.38,0,0,1,1.27.2,1.2,1.2,0,0,1,.66.36,3.17,3.17,0,0,1,.37.59l6.65,12.54L447,379.72a3.17,3.17,0,0,1,.37-.59,1.23,1.23,0,0,1,.62-.36,5.36,5.36,0,0,1,1.17-.2c.5,0,1.18-.05,2.06-.05s1.75,0,2.32.07a2,2,0,0,1,1.17.39.93.93,0,0,1,.16.94,10.75,10.75,0,0,1-.66,1.67l-8.44,15.47Z" transform="translate(-88.98 -320.57)"/><path class="cls-2" d="M248.19,447.55a.37.37,0,0,1-.05.18.36.36,0,0,1-.21.13,1.59,1.59,0,0,1-.4.09,5.22,5.22,0,0,1-.62,0,5.34,5.34,0,0,1-.62,0,1.61,1.61,0,0,1-.39-.09.37.37,0,0,1-.2-.13.3.3,0,0,1-.06-.18v-10.8h0l-3.85,10.79a.61.61,0,0,1-.13.22.73.73,0,0,1-.25.13,1.45,1.45,0,0,1-.41.07l-.59,0a5.21,5.21,0,0,1-.6,0,1.76,1.76,0,0,1-.4-.08.66.66,0,0,1-.25-.14.41.41,0,0,1-.13-.19l-3.71-10.79h0v10.8a.37.37,0,0,1-.05.18.36.36,0,0,1-.21.13,1.83,1.83,0,0,1-.4.09,5.22,5.22,0,0,1-.62,0,5.34,5.34,0,0,1-.62,0,1.61,1.61,0,0,1-.39-.09.36.36,0,0,1-.21-.13.37.37,0,0,1-.05-.18V435.72a1.08,1.08,0,0,1,.28-.8,1,1,0,0,1,.73-.27h1.77a3.88,3.88,0,0,1,.81.07,1.54,1.54,0,0,1,.58.26,1.44,1.44,0,0,1,.41.47,3.48,3.48,0,0,1,.29.72l2.87,7.91h0l3-7.88a3.93,3.93,0,0,1,.3-.73,1.53,1.53,0,0,1,.37-.48,1.13,1.13,0,0,1,.49-.27,2.7,2.7,0,0,1,.67-.07h1.81a1.35,1.35,0,0,1,.48.07.93.93,0,0,1,.33.21.75.75,0,0,1,.19.34,1.25,1.25,0,0,1,.07.45Z" transform="translate(-88.98 -320.57)"/><path class="cls-2" d="M262,446.91a3.86,3.86,0,0,1,.16.59.34.34,0,0,1-.09.32.69.69,0,0,1-.4.13c-.19,0-.45,0-.79,0l-.81,0a2.13,2.13,0,0,1-.45-.06.36.36,0,0,1-.21-.13.51.51,0,0,1-.1-.21l-.9-2.67h-5l-.84,2.59a.82.82,0,0,1-.11.25.49.49,0,0,1-.21.15,1.74,1.74,0,0,1-.42.08l-.72,0a7.12,7.12,0,0,1-.74,0,.53.53,0,0,1-.36-.15.41.41,0,0,1-.08-.34,3.73,3.73,0,0,1,.16-.57l4.09-11.77a1,1,0,0,1,.14-.28.5.5,0,0,1,.26-.17,2,2,0,0,1,.5-.07l.84,0,1,0a2.31,2.31,0,0,1,.55.07.57.57,0,0,1,.29.17,1,1,0,0,1,.15.31Zm-6.09-9.73h0L254,442.82h3.76Z" transform="translate(-88.98 -320.57)"/><path class="cls-2" d="M273.26,446.9a2.34,2.34,0,0,1,.24.57.3.3,0,0,1-.06.33.76.76,0,0,1-.45.15q-.32,0-.9,0l-.75,0a2.9,2.9,0,0,1-.44-.07.42.42,0,0,1-.23-.13.56.56,0,0,1-.12-.2l-2.5-4.79-2.48,4.79a.77.77,0,0,1-.13.2.47.47,0,0,1-.23.13,2.9,2.9,0,0,1-.44.07l-.75,0c-.35,0-.63,0-.82,0a.6.6,0,0,1-.4-.15.33.33,0,0,1,0-.33,3.17,3.17,0,0,1,.26-.57l3.18-5.79-3-5.45a4.59,4.59,0,0,1-.25-.59.33.33,0,0,1,.05-.33.82.82,0,0,1,.44-.13q.31,0,.9,0c.32,0,.58,0,.77,0a2.22,2.22,0,0,1,.44.06.45.45,0,0,1,.23.13.84.84,0,0,1,.13.21l2.33,4.38,2.27-4.38a1.3,1.3,0,0,1,.12-.21.51.51,0,0,1,.22-.13,1.8,1.8,0,0,1,.41-.06,6.57,6.57,0,0,1,.72,0q.51,0,.81,0a.63.63,0,0,1,.41.14.3.3,0,0,1,.06.33,4.51,4.51,0,0,1-.23.58l-3,5.42Z" transform="translate(-88.98 -320.57)"/><path class="cls-2" d="M282.83,447.55a.26.26,0,0,1-.07.18.36.36,0,0,1-.22.13,1.68,1.68,0,0,1-.41.09,7.06,7.06,0,0,1-1.3,0,1.67,1.67,0,0,1-.42-.09.39.39,0,0,1-.22-.13.31.31,0,0,1-.07-.18V435a.34.34,0,0,1,.07-.19.45.45,0,0,1,.23-.13,1.74,1.74,0,0,1,.41-.08,5.3,5.3,0,0,1,1.3,0,1.74,1.74,0,0,1,.41.08.41.41,0,0,1,.22.13.28.28,0,0,1,.07.19Z" transform="translate(-88.98 -320.57)"/><path class="cls-2" d="M292.32,447.44a.78.78,0,0,1-.13.29.51.51,0,0,1-.26.16,2.16,2.16,0,0,1-.51.07l-.83,0h-.7l-.5,0a2.09,2.09,0,0,1-.33-.07.64.64,0,0,1-.22-.1.47.47,0,0,1-.13-.15,1.23,1.23,0,0,1-.09-.22l-3.94-11.76a2.24,2.24,0,0,1-.15-.58.34.34,0,0,1,.1-.33.84.84,0,0,1,.43-.13q.31,0,.87,0a6.78,6.78,0,0,1,.73,0,1.27,1.27,0,0,1,.41.07.29.29,0,0,1,.2.15,1.27,1.27,0,0,1,.11.26l3.23,10.23h0l3.17-10.18a1.11,1.11,0,0,1,.1-.28.51.51,0,0,1,.21-.17,1.43,1.43,0,0,1,.43-.08,7.42,7.42,0,0,1,.76,0,6.32,6.32,0,0,1,.73,0,.55.55,0,0,1,.36.14.38.38,0,0,1,.06.34,2.84,2.84,0,0,1-.16.57Z" transform="translate(-88.98 -320.57)"/><path class="cls-2" d="M310.18,446.79a3.58,3.58,0,0,1,0,.51,1.3,1.3,0,0,1-.08.35.38.38,0,0,1-.12.2.34.34,0,0,1-.18.07h-6.08a.8.8,0,0,1-.57-.21.78.78,0,0,1-.23-.65V435a.33.33,0,0,1,.06-.19.51.51,0,0,1,.22-.13,1.84,1.84,0,0,1,.42-.08,5.49,5.49,0,0,1,.65,0,5.68,5.68,0,0,1,.66,0,1.86,1.86,0,0,1,.41.08.51.51,0,0,1,.22.13.33.33,0,0,1,.06.19v10.67h4.18a.32.32,0,0,1,.18.06.36.36,0,0,1,.12.18,1.31,1.31,0,0,1,.08.34A3.74,3.74,0,0,1,310.18,446.79Z" transform="translate(-88.98 -320.57)"/><path class="cls-2" d="M319.41,447.6a.27.27,0,0,1-.11.22.6.6,0,0,1-.32.12,5.46,5.46,0,0,1-1.32,0,.52.52,0,0,1-.3-.12.28.28,0,0,1-.09-.22v-.73a4,4,0,0,1-1.28.94,3.72,3.72,0,0,1-1.61.34A4.43,4.43,0,0,1,313,448a3,3,0,0,1-1.05-.56,2.6,2.6,0,0,1-.7-.93,3.23,3.23,0,0,1-.24-1.29,2.88,2.88,0,0,1,.31-1.39,2.64,2.64,0,0,1,.93-1,4.78,4.78,0,0,1,1.55-.56,10.44,10.44,0,0,1,2.14-.19h.89v-.55a3.41,3.41,0,0,0-.08-.76,1.41,1.41,0,0,0-.29-.54,1.1,1.1,0,0,0-.54-.31,2.71,2.71,0,0,0-.82-.11,4,4,0,0,0-1.15.15,5.52,5.52,0,0,0-.9.32c-.26.11-.48.22-.65.31a1,1,0,0,1-.43.15.37.37,0,0,1-.2-.07.55.55,0,0,1-.14-.21,1.31,1.31,0,0,1-.09-.33,2.81,2.81,0,0,1,0-.43,2.14,2.14,0,0,1,.05-.5.82.82,0,0,1,.2-.33,1.77,1.77,0,0,1,.5-.33,7,7,0,0,1,.84-.34,9,9,0,0,1,1.05-.25,7.53,7.53,0,0,1,1.18-.09,7.06,7.06,0,0,1,1.84.21,3.15,3.15,0,0,1,1.25.64,2.53,2.53,0,0,1,.72,1.12,5.32,5.32,0,0,1,.23,1.64Zm-2.54-3.92h-1a5.48,5.48,0,0,0-1.07.09,2.17,2.17,0,0,0-.72.28,1.08,1.08,0,0,0-.4.45,1.26,1.26,0,0,0-.13.6,1.16,1.16,0,0,0,.36.9,1.47,1.47,0,0,0,1,.33,1.9,1.9,0,0,0,1-.28,4.21,4.21,0,0,0,.93-.81Z" transform="translate(-88.98 -320.57)"/><path class="cls-2" d="M331.19,442.87a8.15,8.15,0,0,1-.27,2.19,5,5,0,0,1-.77,1.67,3.44,3.44,0,0,1-1.23,1,3.63,3.63,0,0,1-1.67.37,3.85,3.85,0,0,1-.86-.09,2.74,2.74,0,0,1-.77-.28,3.93,3.93,0,0,1-.71-.49,7,7,0,0,1-.73-.72v1a.38.38,0,0,1-.05.19.39.39,0,0,1-.19.12,1.21,1.21,0,0,1-.34.08l-.52,0-.53,0a1.21,1.21,0,0,1-.34-.08.32.32,0,0,1-.18-.12.38.38,0,0,1,0-.19V434.08a.28.28,0,0,1,.06-.18.43.43,0,0,1,.21-.14,1.59,1.59,0,0,1,.4-.09,5.22,5.22,0,0,1,.62,0,5.53,5.53,0,0,1,.63,0,1.61,1.61,0,0,1,.39.09.43.43,0,0,1,.21.14.28.28,0,0,1,.06.18v5.06a6.22,6.22,0,0,1,.7-.6,3.81,3.81,0,0,1,.7-.4,3.1,3.1,0,0,1,.71-.23,4,4,0,0,1,.78-.07,3.2,3.2,0,0,1,2.88,1.49,5,5,0,0,1,.65,1.61A8.58,8.58,0,0,1,331.19,442.87Zm-2.68.18a6.86,6.86,0,0,0-.09-1.12,3.07,3.07,0,0,0-.3-1,1.85,1.85,0,0,0-.56-.67,1.41,1.41,0,0,0-.86-.25,1.75,1.75,0,0,0-.51.07,1.8,1.8,0,0,0-.5.25,2.68,2.68,0,0,0-.54.45,5.5,5.5,0,0,0-.59.69v3a5.24,5.24,0,0,0,1,1.06,1.7,1.7,0,0,0,1,.37,1.44,1.44,0,0,0,.86-.26,2,2,0,0,0,.57-.67,2.94,2.94,0,0,0,.34-.93A5.33,5.33,0,0,0,328.51,443.05Z" transform="translate(-88.98 -320.57)"/><path class="cls-2" d="M342.5,442.9a7.11,7.11,0,0,1-.31,2.13,4.69,4.69,0,0,1-.93,1.67,4.18,4.18,0,0,1-1.57,1.07,6.7,6.7,0,0,1-4.33,0,3.8,3.8,0,0,1-1.5-1,4.1,4.1,0,0,1-.88-1.59,7.46,7.46,0,0,1-.29-2.15A6.87,6.87,0,0,1,333,441a4.44,4.44,0,0,1,.94-1.66,4.19,4.19,0,0,1,1.56-1.08,5.89,5.89,0,0,1,2.2-.37,6.19,6.19,0,0,1,2.13.33,3.7,3.7,0,0,1,1.49,1,4,4,0,0,1,.88,1.59A7.48,7.48,0,0,1,342.5,442.9Zm-2.66.1a6,6,0,0,0-.11-1.24,2.91,2.91,0,0,0-.36-1,1.87,1.87,0,0,0-.68-.66,2.57,2.57,0,0,0-2.08,0,1.81,1.81,0,0,0-.71.61,3,3,0,0,0-.41,1,5.54,5.54,0,0,0-.14,1.29,6.92,6.92,0,0,0,.11,1.25,3.14,3.14,0,0,0,.37,1,1.64,1.64,0,0,0,.68.65,2.57,2.57,0,0,0,2.08,0,1.81,1.81,0,0,0,.71-.61,3,3,0,0,0,.41-1A5.66,5.66,0,0,0,339.84,443Z" transform="translate(-88.98 -320.57)"/><path class="cls-2" d="M350.41,439.27a5.35,5.35,0,0,1,0,.61,1.58,1.58,0,0,1-.06.37.35.35,0,0,1-.11.18.29.29,0,0,1-.17.05l-.18,0-.23-.08-.28-.08a1.87,1.87,0,0,0-.34,0,1.26,1.26,0,0,0-.43.08,1.79,1.79,0,0,0-.45.27,3.89,3.89,0,0,0-.48.5,6.08,6.08,0,0,0-.54.76v5.7a.32.32,0,0,1-.06.18.42.42,0,0,1-.21.12,1.65,1.65,0,0,1-.4.08,5.22,5.22,0,0,1-.62,0,5.53,5.53,0,0,1-.63,0,1.66,1.66,0,0,1-.39-.08.42.42,0,0,1-.21-.12.32.32,0,0,1-.06-.18v-9.15a.27.27,0,0,1,0-.18.38.38,0,0,1,.18-.13,1.44,1.44,0,0,1,.35-.07,3.74,3.74,0,0,1,.52,0,4.22,4.22,0,0,1,.55,0,1.17,1.17,0,0,1,.33.07.4.4,0,0,1,.17.13.35.35,0,0,1,.05.18v1.14a7.63,7.63,0,0,1,.68-.85,3.93,3.93,0,0,1,.6-.53,1.89,1.89,0,0,1,.58-.27,2.22,2.22,0,0,1,.57-.07h.29l.32,0,.28.08a.47.47,0,0,1,.18.1.44.44,0,0,1,.09.11c0,.05,0,.1,0,.17a2.19,2.19,0,0,1,0,.33C350.41,438.83,350.41,439,350.41,439.27Z" transform="translate(-88.98 -320.57)"/><path class="cls-2" d="M359.33,447.6a.26.26,0,0,1-.1.22.6.6,0,0,1-.32.12,5,5,0,0,1-.65,0,4.82,4.82,0,0,1-.67,0,.52.52,0,0,1-.3-.12.28.28,0,0,1-.09-.22v-.73a4,4,0,0,1-1.29.94,3.64,3.64,0,0,1-1.6.34A4.38,4.38,0,0,1,353,448a2.94,2.94,0,0,1-1.05-.56,2.6,2.6,0,0,1-.7-.93,3.23,3.23,0,0,1-.24-1.29,2.88,2.88,0,0,1,.31-1.39,2.64,2.64,0,0,1,.93-1,4.78,4.78,0,0,1,1.55-.56,10.44,10.44,0,0,1,2.14-.19h.89v-.55a2.88,2.88,0,0,0-.09-.76,1.27,1.27,0,0,0-.28-.54,1.15,1.15,0,0,0-.54-.31,2.71,2.71,0,0,0-.82-.11,4,4,0,0,0-1.15.15,5.52,5.52,0,0,0-.9.32c-.26.11-.48.22-.65.31a1,1,0,0,1-.43.15.37.37,0,0,1-.2-.07.46.46,0,0,1-.14-.21,1.31,1.31,0,0,1-.09-.33,2.81,2.81,0,0,1,0-.43,2.14,2.14,0,0,1,0-.5.72.72,0,0,1,.2-.33,1.77,1.77,0,0,1,.5-.33,7,7,0,0,1,.84-.34,9,9,0,0,1,1.05-.25,7.49,7.49,0,0,1,1.17-.09,7,7,0,0,1,1.84.21,3.13,3.13,0,0,1,1.26.64,2.53,2.53,0,0,1,.72,1.12,5.34,5.34,0,0,1,.22,1.64Zm-2.53-3.92h-1a5.41,5.41,0,0,0-1.07.09,2.17,2.17,0,0,0-.72.28,1.08,1.08,0,0,0-.4.45,1.26,1.26,0,0,0-.13.6,1.16,1.16,0,0,0,.36.9,1.46,1.46,0,0,0,1,.33,1.91,1.91,0,0,0,1-.28,4.21,4.21,0,0,0,.93-.81Z" transform="translate(-88.98 -320.57)"/><path class="cls-2" d="M367.13,446.66a3.12,3.12,0,0,1-.06.7.73.73,0,0,1-.15.33.71.71,0,0,1-.27.18,3,3,0,0,1-.42.13,4,4,0,0,1-.52.09,5.44,5.44,0,0,1-.57,0,4.13,4.13,0,0,1-1.34-.19,2.27,2.27,0,0,1-.93-.6,2.49,2.49,0,0,1-.54-1,5.25,5.25,0,0,1-.18-1.46v-4.69h-1.09a.33.33,0,0,1-.3-.24,2.21,2.21,0,0,1-.1-.8c0-.2,0-.37,0-.5a1.14,1.14,0,0,1,.08-.33.39.39,0,0,1,.13-.17.35.35,0,0,1,.18-.05h1.08v-2a.28.28,0,0,1,.06-.18.43.43,0,0,1,.21-.14,1.22,1.22,0,0,1,.4-.08,5.22,5.22,0,0,1,.62,0,5.53,5.53,0,0,1,.63,0,1.21,1.21,0,0,1,.39.08.48.48,0,0,1,.21.14.28.28,0,0,1,.06.18v2h2a.29.29,0,0,1,.3.22,1.14,1.14,0,0,1,.08.33,3.43,3.43,0,0,1,0,.5,2.16,2.16,0,0,1-.11.8.31.31,0,0,1-.29.24h-2v4.3a2.2,2.2,0,0,0,.23,1.12.92.92,0,0,0,.84.38,1.4,1.4,0,0,0,.37,0l.3-.08.21-.08a.34.34,0,0,1,.16,0,.19.19,0,0,1,.12,0s.06.07.08.14a1.45,1.45,0,0,1,.06.29A3.09,3.09,0,0,1,367.13,446.66Z" transform="translate(-88.98 -320.57)"/><path class="cls-2" d="M378,442.9a7.11,7.11,0,0,1-.31,2.13,4.69,4.69,0,0,1-.93,1.67,4.18,4.18,0,0,1-1.57,1.07,6.7,6.7,0,0,1-4.33,0,3.8,3.8,0,0,1-1.5-1,4.1,4.1,0,0,1-.88-1.59,7.46,7.46,0,0,1-.29-2.15,6.87,6.87,0,0,1,.32-2.14,4.44,4.44,0,0,1,.94-1.66,4.19,4.19,0,0,1,1.56-1.08,5.89,5.89,0,0,1,2.2-.37,6.19,6.19,0,0,1,2.13.33,3.7,3.7,0,0,1,1.49,1,4,4,0,0,1,.88,1.59A7.48,7.48,0,0,1,378,442.9Zm-2.66.1a6,6,0,0,0-.11-1.24,2.91,2.91,0,0,0-.36-1,1.87,1.87,0,0,0-.68-.66,2.57,2.57,0,0,0-2.08,0,1.81,1.81,0,0,0-.71.61,3,3,0,0,0-.41,1,5.54,5.54,0,0,0-.14,1.29,6.92,6.92,0,0,0,.11,1.25,3.14,3.14,0,0,0,.37,1,1.64,1.64,0,0,0,.68.65,2.57,2.57,0,0,0,2.08,0,1.81,1.81,0,0,0,.71-.61,3,3,0,0,0,.41-1A5.66,5.66,0,0,0,375.38,443Z" transform="translate(-88.98 -320.57)"/><path class="cls-2" d="M386,439.27a5.35,5.35,0,0,1,0,.61,1.58,1.58,0,0,1-.06.37.35.35,0,0,1-.11.18.29.29,0,0,1-.17.05l-.18,0-.23-.08-.28-.08a1.87,1.87,0,0,0-.34,0,1.31,1.31,0,0,0-.43.08,2.23,2.23,0,0,0-.45.27,3.89,3.89,0,0,0-.48.5,6.08,6.08,0,0,0-.54.76v5.7a.32.32,0,0,1-.06.18.42.42,0,0,1-.21.12,1.66,1.66,0,0,1-.39.08,5.53,5.53,0,0,1-.63,0,5.22,5.22,0,0,1-.62,0,1.65,1.65,0,0,1-.4-.08.42.42,0,0,1-.21-.12.32.32,0,0,1-.06-.18v-9.15a.27.27,0,0,1,.05-.18.38.38,0,0,1,.18-.13,1.44,1.44,0,0,1,.35-.07,3.79,3.79,0,0,1,.53,0,4.16,4.16,0,0,1,.54,0,1.17,1.17,0,0,1,.33.07.4.4,0,0,1,.17.13.27.27,0,0,1,0,.18v1.14a7.63,7.63,0,0,1,.68-.85,3.93,3.93,0,0,1,.6-.53,2,2,0,0,1,.58-.27,2.22,2.22,0,0,1,.57-.07H385l.32,0,.28.08a.47.47,0,0,1,.18.1.44.44,0,0,1,.09.11c0,.05,0,.1,0,.17a1.37,1.37,0,0,1,0,.33C386,438.83,386,439,386,439.27Z" transform="translate(-88.98 -320.57)"/><path class="cls-2" d="M392.94,447.92l-1.11,3.24a.65.65,0,0,1-.5.36,4.61,4.61,0,0,1-1.2.12,5.26,5.26,0,0,1-.66,0,.8.8,0,0,1-.37-.12.24.24,0,0,1-.13-.2.61.61,0,0,1,.06-.3l1.22-3.06a.83.83,0,0,1-.4-.47l-3.15-8.4a1.73,1.73,0,0,1-.13-.55.38.38,0,0,1,.12-.3.84.84,0,0,1,.42-.15,5.32,5.32,0,0,1,.77,0,6.87,6.87,0,0,1,.7,0,1.31,1.31,0,0,1,.4.07.43.43,0,0,1,.21.19,2,2,0,0,1,.15.37l2.15,6.12h0l2-6.25a.67.67,0,0,1,.16-.35.64.64,0,0,1,.32-.13,4.79,4.79,0,0,1,.79,0,5,5,0,0,1,.73,0,.82.82,0,0,1,.43.16.34.34,0,0,1,.14.3,1.33,1.33,0,0,1-.08.44Z" transform="translate(-88.98 -320.57)"/><path class="cls-3" d="M154.82,484.84A66.06,66.06,0,0,1,89,419.65a8,8,0,0,1,7.92-8.08H97a8,8,0,0,1,8,7.92,49.85,49.85,0,0,0,99.7-.5,8,8,0,0,1,16,0A65.93,65.93,0,0,1,154.82,484.84Z" transform="translate(-88.98 -320.57)"/><text x="-88.98" y="-320.57"/></svg>