<?xml version="1.0" encoding="UTF-8" standalone="no"?>
<svg
   xmlns:dc="http://purl.org/dc/elements/1.1/"
   xmlns:cc="http://creativecommons.org/ns#"
   xmlns:rdf="http://www.w3.org/1999/02/22-rdf-syntax-ns#"
   xmlns:svg="http://www.w3.org/2000/svg"
   xmlns="http://www.w3.org/2000/svg"
   xmlns:sodipodi="http://sodipodi.sourceforge.net/DTD/sodipodi-0.dtd"
   xmlns:inkscape="http://www.inkscape.org/namespaces/inkscape"
   height="2.82525in"
   style="shape-rendering:geometricPrecision; text-rendering:geometricPrecision; image-rendering:optimizeQuality; fill-rule:evenodd; clip-rule:evenodd"
   version="1.1"
   viewBox="0 0 2825 2825"
   width="2.82525in"
   xml:space="preserve"
   id="svg116"
   sodipodi:docname="0.svg"
   inkscape:version="0.92.2 (5c3e80d, 2017-08-06)"><metadata
     id="metadata120"><rdf:RDF><cc:Work
         rdf:about=""><dc:format>image/svg+xml</dc:format><dc:type
           rdf:resource="http://purl.org/dc/dcmitype/StillImage" /></cc:Work></rdf:RDF></metadata><sodipodi:namedview
     pagecolor="#ffffff"
     bordercolor="#666666"
     borderopacity="1"
     objecttolerance="10"
     gridtolerance="10"
     guidetolerance="10"
     inkscape:pageopacity="0"
     inkscape:pageshadow="2"
     inkscape:window-width="2560"
     inkscape:window-height="1341"
     id="namedview118"
     showgrid="false"
     inkscape:zoom="2.9929454"
     inkscape:cx="69.066381"
     inkscape:cy="141.38581"
     inkscape:window-x="0"
     inkscape:window-y="28"
     inkscape:window-maximized="1"
     inkscape:current-layer="svg116" /><defs
     id="defs87"><style
       type="text/css"
       id="style85"><![CDATA[
    .fil0 {fill:black;fill-rule:nonzero}
   ]]></style></defs><g
     id="Layer_x0020_1"
     style="fill:#ffffff"><path
       class="fil0"
       d="M1778 48c377,101 677,345 858,658l0 0c180,314 242,695 141,1072 -101,377 -345,677 -658,858l0 0c-313,180 -695,242 -1072,141 -376,-101 -677,-345 -857,-658l0 0c-181,-313 -242,-695 -142,-1072 101,-376 345,-677 658,-857l0 0c314,-181 695,-242 1072,-142zm798 693c-172,-297 -457,-530 -816,-626 -358,-96 -721,-37 -1019,135l0 -1 0 1c-297,171 -530,457 -626,815 -96,358 -37,721 135,1019l-1 0 1 0c171,298 457,530 815,626 358,96 721,38 1019,-134l0 0 0 0c298,-172 530,-457 626,-816 96,-358 38,-721 -134,-1019l0 0 0 0z"
       id="path89"
       style="fill:#ffffff" /><path
       class="fil0"
       d="M688 853c0,-234 95,-446 248,-599 153,-153 365,-248 599,-248 113,0 221,22 319,62 103,42 195,103 273,179 14,13 14,35 1,49 -6,6 -12,9 -19,10l0 0c-286,48 -543,184 -740,378 -198,196 -337,450 -389,735 -4,19 -21,31 -40,28 -8,-2 -14,-5 -19,-11l0 0c-74,-77 -133,-168 -173,-269 -39,-97 -60,-203 -60,-314zm297 -550c-141,141 -228,335 -228,550 0,102 20,199 55,288 29,71 67,137 114,196 63,-271 203,-513 394,-702 192,-189 435,-325 708,-384 -60,-49 -127,-89 -200,-119 -90,-36 -189,-57 -293,-57 -215,0 -409,87 -550,228z"
       id="path91"
       style="fill:#ffffff" /><path
       class="fil0"
       d="M2138 1972c0,234 -95,446 -249,599 -153,154 -365,248 -599,248 -113,0 -221,-22 -319,-62 -103,-42 -195,-103 -273,-179 -13,-13 -14,-35 0,-49 5,-5 12,-9 19,-10l0 0c286,-48 542,-183 740,-378 197,-195 337,-450 388,-734 4,-19 22,-32 41,-28 7,1 14,5 19,10l0 0c73,77 132,168 172,269 39,98 61,204 61,314zm-298 550c141,-141 228,-335 228,-550 0,-102 -19,-199 -55,-288 -28,-71 -67,-137 -114,-196 -63,271 -202,513 -394,702 -191,189 -435,325 -707,384 59,49 126,89 199,119 90,37 189,57 293,57 215,0 410,-87 550,-228z"
       id="path93"
       style="fill:#ffffff" /><path
       class="fil0"
       d="M1535 505c202,-117 433,-141 643,-85 209,57 397,193 514,395 57,98 91,203 106,308 15,110 8,220 -19,326 -5,18 -23,29 -42,25 -8,-2 -15,-7 -20,-14 -184,-223 -429,-376 -696,-449 -267,-74 -557,-68 -830,30 -18,6 -38,-3 -44,-21 -3,-8 -3,-16 0,-24 30,-101 79,-197 146,-282 65,-82 146,-153 242,-209l0 0zm625 -18c-193,-51 -405,-29 -591,78l0 0 0 0c-88,51 -162,116 -222,192 -47,60 -85,126 -112,196 266,-80 545,-81 805,-9 259,71 498,214 686,421 13,-77 14,-155 3,-233 -13,-96 -45,-192 -97,-282 -107,-186 -280,-311 -472,-363z"
       id="path95"
       style="fill:#ffffff" /><path
       class="fil0"
       d="M1290 2320c-202,117 -433,141 -642,85 -210,-56 -398,-192 -515,-395 -56,-98 -91,-202 -106,-308 -15,-110 -8,-220 19,-325 5,-19 24,-30 42,-25 9,2 15,7 20,13 184,223 429,376 696,450 268,74 558,67 830,-31 18,-6 38,3 45,21 3,8 2,17 0,24 -31,102 -80,198 -147,282 -64,82 -145,154 -242,209l0 0zm-624 18c192,51 404,30 590,-78l0 0 0 0c88,-51 162,-116 222,-192 47,-60 85,-126 113,-196 -267,81 -546,81 -806,9 -259,-71 -498,-214 -686,-420 -12,76 -14,154 -3,232 13,97 45,193 97,283 107,185 280,310 473,362z"
       id="path97"
       style="fill:#ffffff" /><path
       class="fil0"
       d="M2262 1066c201,117 337,304 392,513 57,209 33,440 -84,643 -1,1 -1,1 -1,2 -57,97 -130,179 -213,243 -87,68 -187,118 -291,147 -19,5 -38,-6 -43,-24 -2,-8 -2,-16 2,-23 101,-271 111,-560 41,-828 -70,-269 -220,-517 -441,-704 -15,-13 -17,-34 -4,-49 5,-7 12,-10 20,-12 103,-24 211,-30 318,-14 103,15 206,49 302,105 0,0 1,1 2,1zm325 531c-51,-192 -175,-364 -360,-471 -1,-1 -1,-1 -2,-1 -88,-51 -182,-83 -277,-97 -76,-11 -152,-10 -227,1 203,190 343,432 411,692 68,261 64,540 -21,805 72,-27 141,-65 203,-113 76,-60 143,-135 195,-224 0,0 0,-1 1,-2 107,-186 129,-398 77,-590z"
       id="path99"
       style="fill:#ffffff" /><path
       class="fil0"
       d="M564 1759c-202,-117 -337,-304 -393,-513 -56,-209 -32,-440 85,-643 0,0 0,-1 1,-2 56,-97 129,-178 212,-243 88,-68 187,-117 292,-147 18,-5 37,6 42,24 3,8 2,16 -1,23 -101,271 -112,560 -42,829 70,268 221,516 442,703 14,13 16,35 4,49 -6,7 -13,11 -21,12 -103,25 -211,30 -317,15 -104,-15 -206,-50 -302,-105 -1,-1 -2,-1 -2,-2zm-326 -531c51,192 175,364 360,472 1,0 2,0 2,1 88,51 182,82 277,96 76,11 153,10 227,-1 -203,-190 -343,-432 -411,-692 -68,-260 -63,-539 21,-805 -72,27 -140,65 -202,114 -77,59 -144,134 -196,223 0,1 0,1 -1,2 -107,186 -129,398 -77,590z"
       id="path101"
       style="fill:#ffffff" /><path
       class="fil0"
       d="M2320 1535c117,202 141,433 85,643 -56,209 -192,397 -395,514 -98,57 -202,91 -308,106 -110,15 -220,8 -325,-19 -19,-5 -30,-23 -25,-42 2,-8 7,-15 13,-20 223,-184 376,-429 450,-696 74,-267 67,-557 -31,-830 -6,-18 3,-38 21,-44 8,-3 17,-3 24,0 102,30 198,79 282,146 82,65 154,146 209,242l0 0zm18 625c51,-193 30,-405 -78,-591l0 0 0 0c-51,-88 -116,-162 -192,-222 -60,-47 -126,-85 -196,-112 81,266 81,545 9,805 -71,259 -214,498 -420,686 76,13 154,14 232,3 97,-13 193,-45 283,-97 185,-107 310,-280 362,-472z"
       id="path103"
       style="fill:#ffffff" /><path
       class="fil0"
       d="M505 1290c-117,-202 -141,-433 -85,-642 57,-210 193,-398 395,-515 98,-56 203,-91 308,-106 110,-15 220,-8 326,19 18,5 29,24 25,42 -2,9 -7,15 -14,20 -223,184 -376,429 -449,696 -74,268 -68,558 30,830 6,18 -3,38 -21,45 -8,3 -16,2 -24,0 -101,-31 -197,-80 -282,-147 -82,-64 -153,-145 -209,-242l0 0zm-18 -624c-51,192 -29,404 78,590l0 0 0 0c51,88 116,162 192,222 60,47 126,85 196,113 -80,-267 -81,-546 -9,-806 71,-259 214,-498 421,-686 -77,-12 -155,-14 -233,-3 -96,13 -192,45 -282,97 -186,107 -311,280 -363,473z"
       id="path105"
       style="fill:#ffffff" /><path
       class="fil0"
       d="M1759 2262c-117,201 -304,337 -513,392 -209,57 -440,33 -643,-84 0,-1 -1,-1 -2,-1 -97,-57 -178,-130 -243,-213 -68,-87 -117,-187 -147,-291 -5,-19 6,-38 24,-43 8,-2 16,-2 23,2 271,101 560,111 829,41 268,-70 516,-220 703,-441 13,-15 35,-17 49,-4 7,5 11,12 12,20 25,103 30,211 15,318 -15,103 -50,206 -105,302 -1,0 -1,1 -2,2zm-531 325c192,-51 364,-175 472,-360 0,-1 0,-1 1,-2 51,-88 82,-182 96,-277 11,-76 10,-152 -1,-227 -190,203 -432,343 -692,411 -260,68 -539,64 -805,-21 27,72 65,141 114,203 59,76 134,143 223,195 1,0 1,0 2,1 186,107 398,129 590,77z"
       id="path107"
       style="fill:#ffffff" /><path
       class="fil0"
       d="M1066 564c117,-202 304,-337 513,-393 209,-56 440,-32 643,85 1,0 1,0 2,1 97,56 179,129 243,212 68,88 118,187 147,292 5,18 -6,37 -24,42 -8,3 -16,2 -23,-1 -271,-101 -560,-112 -828,-42 -269,70 -517,221 -704,442 -13,14 -34,16 -49,4 -7,-6 -10,-13 -12,-21 -24,-103 -30,-211 -14,-317 15,-104 49,-206 105,-302 0,-1 1,-2 1,-2zm531 -326c-192,51 -364,175 -471,360 -1,1 -1,2 -1,2 -51,88 -83,182 -97,277 -11,76 -10,153 1,227 190,-203 432,-343 692,-411 261,-68 540,-63 805,21 -27,-72 -65,-140 -113,-202 -60,-77 -135,-144 -224,-196 0,0 -1,0 -2,-1 -186,-107 -398,-129 -590,-77z"
       id="path109"
       style="fill:#ffffff" /><path
       class="fil0"
       d="M853 2138c-234,0 -446,-95 -599,-249 -153,-153 -248,-365 -248,-599 0,-113 22,-221 62,-319 42,-103 103,-195 179,-273 13,-13 35,-14 49,0 6,5 9,12 10,19l0 0c48,286 184,542 378,740 196,197 450,337 735,388 19,4 31,22 28,41 -2,7 -5,14 -11,19l0 0c-77,73 -168,132 -269,172 -97,39 -203,61 -314,61zm-550 -298c141,141 335,228 550,228 102,0 199,-19 288,-55 71,-28 137,-67 196,-114 -271,-63 -513,-202 -702,-394 -189,-191 -325,-435 -384,-707 -49,59 -89,126 -119,199 -36,90 -57,189 -57,293 0,215 87,410 228,550z"
       id="path111"
       style="fill:#ffffff" /><path
       class="fil0"
       d="M1972 688c234,0 446,95 599,248 154,153 248,365 248,599 0,113 -22,221 -62,319 -42,103 -103,195 -179,273 -13,14 -35,14 -49,1 -5,-6 -9,-12 -10,-19l0 0c-48,-286 -183,-543 -378,-740 -195,-198 -450,-337 -734,-389 -19,-4 -32,-21 -28,-40 1,-8 5,-14 10,-19l0 0c77,-74 168,-133 269,-173 98,-39 204,-60 314,-60zm550 297c-141,-141 -335,-228 -550,-228 -102,0 -199,20 -288,55 -71,29 -137,67 -196,114 271,63 513,203 702,394 189,192 325,435 384,708 49,-60 89,-127 119,-200 37,-90 57,-189 57,-293 0,-215 -87,-409 -228,-550z"
       id="path113"
       style="fill:#ffffff" /></g></svg>