<?xml version="1.0" encoding="UTF-8" standalone="no"?>
<svg
   xmlns:dc="http://purl.org/dc/elements/1.1/"
   xmlns:cc="http://creativecommons.org/ns#"
   xmlns:rdf="http://www.w3.org/1999/02/22-rdf-syntax-ns#"
   xmlns:svg="http://www.w3.org/2000/svg"
   xmlns="http://www.w3.org/2000/svg"
   xmlns:sodipodi="http://sodipodi.sourceforge.net/DTD/sodipodi-0.dtd"
   xmlns:inkscape="http://www.inkscape.org/namespaces/inkscape"
   height="2.82525in"
   style="shape-rendering:geometricPrecision; text-rendering:geometricPrecision; image-rendering:optimizeQuality; fill-rule:evenodd; clip-rule:evenodd"
   version="1.1"
   viewBox="0 0 2825 2825"
   width="2.82525in"
   xml:space="preserve"
   id="svg4743"
   sodipodi:docname="1.svg"
   inkscape:version="0.92.2 (5c3e80d, 2017-08-06)"><metadata
     id="metadata4747"><rdf:RDF><cc:Work
         rdf:about=""><dc:format>image/svg+xml</dc:format><dc:type
           rdf:resource="http://purl.org/dc/dcmitype/StillImage" /><dc:title></dc:title></cc:Work></rdf:RDF></metadata><sodipodi:namedview
     pagecolor="#ffffff"
     bordercolor="#666666"
     borderopacity="1"
     objecttolerance="10"
     gridtolerance="10"
     guidetolerance="10"
     inkscape:pageopacity="0"
     inkscape:pageshadow="2"
     inkscape:window-width="1878"
     inkscape:window-height="923"
     id="namedview4745"
     showgrid="false"
     inkscape:zoom="1.740259"
     inkscape:cx="98.103749"
     inkscape:cy="119.42788"
     inkscape:window-x="590"
     inkscape:window-y="345"
     inkscape:window-maximized="0"
     inkscape:current-layer="Layer_x0020_1" /><defs
     id="defs4722"><style
       type="text/css"
       id="style4720"><![CDATA[
    .fil0 {fill:black;fill-rule:nonzero}
   ]]></style></defs><g
     id="Layer_x0020_1"><path
       class="fil0"
       d="M1778 48c377,101 677,345 858,658l0 0c180,314 242,695 141,1072 -101,377 -345,677 -658,858l0 0c-313,180 -695,242 -1072,141 -376,-101 -677,-345 -857,-658l0 0c-181,-313 -242,-695 -142,-1072 101,-376 345,-677 658,-857l0 0c314,-181 695,-242 1072,-142zm798 693c-172,-297 -457,-530 -816,-626 -358,-96 -721,-37 -1019,135l0 -1 0 1c-297,171 -530,457 -626,815 -96,358 -37,721 135,1019l-1 0 1 0c171,298 457,530 815,626 358,96 721,38 1019,-134l0 0 0 0c298,-172 530,-457 626,-816 96,-358 38,-721 -134,-1019l0 0 0 0z"
       id="path4724"
       style="fill:#ffffff" /><g
       id="g4728"
       style="fill:#ffffff"><path
         class="fil0"
         d="M1378 1413c0,-216 87,-411 228,-552 141,-141 336,-228 552,-228 99,0 194,19 282,53 91,35 174,87 245,152 14,13 15,35 2,49 -1,1 -1,2 -2,2 -72,66 -131,147 -171,238 -38,87 -59,184 -59,286 0,101 21,198 59,285 40,91 99,172 171,238 14,13 15,35 2,49 -1,1 -2,1 -2,2 -71,65 -154,117 -245,152 -88,35 -183,53 -282,53 -216,0 -411,-87 -552,-228 -141,-141 -228,-336 -228,-551zm277 -503c-128,129 -208,306 -208,503 0,196 80,373 208,502 129,128 306,208 503,208 91,0 178,-17 257,-48 72,-28 137,-67 195,-115 -66,-67 -120,-146 -159,-234 -42,-96 -66,-202 -66,-313 0,-112 24,-218 66,-314 39,-87 93,-167 159,-234 -58,-48 -123,-87 -195,-115 -79,-31 -166,-48 -257,-48 -197,0 -374,80 -503,208zm1030 1077l0 0 0 0z"
         id="path4726"
         style="fill:#ffffff" /></g><g
       id="g4732"
       style="fill:#ffffff"><path
         class="fil0"
         d="M1378 1413c0,-197 -80,-374 -208,-503 -129,-128 -306,-208 -502,-208 -91,0 -178,17 -258,48 -71,28 -137,67 -195,115 66,67 121,147 159,234 42,96 66,202 66,314 0,111 -24,217 -66,313 -38,88 -93,167 -159,234 58,48 124,87 195,115 80,31 167,48 258,48 196,0 373,-80 502,-208 128,-129 208,-306 208,-502zm-159 -552c141,141 228,336 228,552 0,215 -87,410 -228,551 -141,141 -336,228 -551,228 -100,0 -195,-18 -283,-53 -91,-35 -174,-87 -244,-152 -1,-1 -2,-1 -3,-2 -13,-14 -12,-36 2,-49 72,-66 131,-147 171,-238 38,-87 59,-184 59,-285 0,-102 -21,-199 -59,-286 -40,-91 -99,-172 -171,-238 0,0 -1,-1 -2,-2 -13,-14 -12,-36 2,-49 71,-65 154,-117 245,-152 88,-34 183,-53 283,-53 215,0 410,87 551,228zm-1078 1126l-1 0 1 0z"
         id="path4730"
         style="fill:#ffffff" /></g><g
       id="g4736"
       style="fill:#ffffff"><path
         class="fil0"
         d="M1413 1378c215,0 410,87 551,228 141,141 228,336 228,552 0,99 -18,194 -53,282 -35,91 -87,174 -152,245 -13,14 -35,15 -49,2 -1,-1 -1,-1 -2,-2 -66,-72 -147,-131 -238,-171 -87,-38 -184,-59 -285,-59 -102,0 -199,21 -286,59 -91,40 -172,99 -238,171 -13,14 -35,15 -49,2 0,-1 -1,-2 -2,-2 -65,-71 -117,-154 -152,-245 -34,-88 -53,-183 -53,-282 0,-216 87,-411 228,-552 141,-141 336,-228 552,-228zm502 277c-129,-128 -306,-208 -502,-208 -197,0 -374,80 -503,208 -128,129 -208,306 -208,503 0,91 17,178 48,257 28,72 67,137 115,195 67,-66 147,-120 234,-159 96,-42 202,-66 314,-66 111,0 217,24 313,66 88,39 167,93 234,159 48,-58 87,-123 115,-195 31,-79 48,-166 48,-257 0,-197 -80,-374 -208,-503zm-1077 1030l0 0 0 0z"
         id="path4734"
         style="fill:#ffffff" /></g><g
       id="g4740"
       style="fill:#ffffff"><path
         class="fil0"
         d="M1413 1378c196,0 373,-80 502,-208 128,-129 208,-306 208,-502 0,-91 -17,-178 -48,-258 -28,-71 -67,-137 -115,-195 -67,66 -146,121 -234,159 -96,42 -202,66 -313,66 -112,0 -218,-24 -314,-66 -87,-38 -167,-93 -234,-159 -48,58 -87,124 -115,195 -31,80 -48,167 -48,258 0,196 80,373 208,502 129,128 306,208 503,208zm551 -159c-141,141 -336,228 -551,228 -216,0 -411,-87 -552,-228 -141,-141 -228,-336 -228,-551 0,-100 19,-195 53,-283 35,-91 87,-174 152,-244 1,-1 2,-2 2,-3 14,-13 36,-12 49,2 66,72 147,131 238,171 87,38 184,59 286,59 101,0 198,-21 285,-59 91,-40 172,-99 238,-171 1,0 1,-1 2,-2 14,-13 36,-12 49,2 65,71 117,154 152,245 35,88 53,183 53,283 0,215 -87,410 -228,551zm-1126 -1078l0 -1 0 1z"
         id="path4738"
         style="fill:#ffffff" /></g></g></svg>