<?xml version="1.0" encoding="UTF-8" standalone="no"?>
<svg
   xmlns:dc="http://purl.org/dc/elements/1.1/"
   xmlns:cc="http://creativecommons.org/ns#"
   xmlns:rdf="http://www.w3.org/1999/02/22-rdf-syntax-ns#"
   xmlns:svg="http://www.w3.org/2000/svg"
   xmlns="http://www.w3.org/2000/svg"
   xmlns:sodipodi="http://sodipodi.sourceforge.net/DTD/sodipodi-0.dtd"
   xmlns:inkscape="http://www.inkscape.org/namespaces/inkscape"
   height="2.82525in"
   style="shape-rendering:geometricPrecision; text-rendering:geometricPrecision; image-rendering:optimizeQuality; fill-rule:evenodd; clip-rule:evenodd"
   version="1.1"
   viewBox="0 0 2825 2825"
   width="2.82525in"
   xml:space="preserve"
   id="svg134"
   sodipodi:docname="2.svg"
   inkscape:version="0.92.2 (5c3e80d, 2017-08-06)"><metadata
     id="metadata138"><rdf:RDF><cc:Work
         rdf:about=""><dc:format>image/svg+xml</dc:format><dc:type
           rdf:resource="http://purl.org/dc/dcmitype/StillImage" /></cc:Work></rdf:RDF></metadata><sodipodi:namedview
     pagecolor="#ffffff"
     bordercolor="#666666"
     borderopacity="1"
     objecttolerance="10"
     gridtolerance="10"
     guidetolerance="10"
     inkscape:pageopacity="0"
     inkscape:pageshadow="2"
     inkscape:window-width="1282"
     inkscape:window-height="975"
     id="namedview136"
     showgrid="false"
     inkscape:zoom="2.0550875"
     inkscape:cx="75.754864"
     inkscape:cy="151.56851"
     inkscape:window-x="519"
     inkscape:window-y="104"
     inkscape:window-maximized="0"
     inkscape:current-layer="svg134" /><defs
     id="defs105"><style
       type="text/css"
       id="style103"><![CDATA[
    .fil0 {fill:black;fill-rule:nonzero}
   ]]></style></defs><g
     id="Layer_x0020_1"
     style="fill:#ffffff"><path
       class="fil0"
       d="M1778 48c377,101 677,345 858,658l0 0c180,314 242,695 141,1072 -101,377 -345,677 -658,858l0 0c-313,180 -695,242 -1072,141 -376,-101 -677,-345 -857,-658l0 0c-181,-313 -242,-695 -142,-1072 101,-376 345,-677 658,-857l0 0c314,-181 695,-242 1072,-142zm798 693c-172,-297 -457,-530 -816,-626 -358,-96 -721,-37 -1019,135l0 -1 0 1c-297,171 -530,457 -626,815 -96,358 -37,721 135,1019l-1 0 1 0c171,298 457,530 815,626 358,96 721,38 1019,-134l0 0 0 0c298,-172 530,-457 626,-816 96,-358 38,-721 -134,-1019l0 0 0 0z"
       id="path107"
       style="fill:#ffffff" /><path
       class="fil0"
       d="M1422 1379c248,67 462,195 632,364 175,176 302,395 366,635 4,13 -1,26 -10,35 -175,174 -394,300 -633,364 -232,62 -482,66 -730,0 -248,-67 -463,-195 -632,-365 -176,-175 -302,-394 -367,-634 -3,-13 1,-26 11,-35 175,-174 394,-300 633,-364 231,-62 482,-66 730,0zm583 414c-161,-162 -366,-284 -601,-347 -236,-63 -474,-59 -694,0 -222,59 -425,174 -589,333 62,221 181,422 343,584 161,161 365,284 601,347 236,63 474,59 694,0 221,-59 425,-174 589,-334 -63,-220 -181,-421 -343,-583z"
       id="path109"
       style="fill:#ffffff" /><path
       class="fil0"
       d="M1446 1422c-66,248 -195,462 -364,632 -176,175 -395,302 -635,366 -13,4 -26,-1 -35,-10 -174,-175 -300,-394 -364,-633 -62,-232 -66,-482 0,-730 67,-248 195,-463 365,-632 175,-176 395,-302 634,-367 13,-3 27,1 35,11 175,175 301,394 365,633 62,231 66,482 -1,730zm-413 583c161,-161 283,-366 346,-601 63,-236 60,-474 1,-694 -60,-222 -175,-425 -334,-589 -220,62 -422,181 -584,343 -161,161 -283,365 -347,601 -63,236 -59,474 0,694 59,221 174,425 334,589 220,-63 422,-181 584,-343z"
       id="path111"
       style="fill:#ffffff" /><path
       class="fil0"
       d="M1422 1446c-248,67 -499,63 -730,1 -240,-64 -459,-191 -635,-366 -9,-9 -12,-22 -9,-34l0 0c65,-239 191,-459 367,-634 169,-170 384,-298 632,-365 248,-66 498,-62 730,0 239,64 459,191 634,366 9,9 12,22 9,33l0 0c-64,240 -191,459 -366,635 -170,169 -384,298 -632,364zm-712 -66c220,59 458,62 694,-1 235,-63 440,-185 601,-346 162,-162 280,-364 343,-584 -164,-160 -368,-275 -589,-334 -220,-59 -458,-63 -694,0 -236,64 -440,186 -601,347 -162,162 -281,364 -343,584 164,159 367,274 589,334z"
       id="path113"
       style="fill:#ffffff" /><path
       class="fil0"
       d="M1437 1437c-181,182 -400,303 -632,366 -239,64 -492,64 -732,0 -13,-4 -22,-13 -25,-25 -64,-240 -64,-493 1,-732 62,-232 183,-451 365,-632 181,-182 400,-303 632,-365 239,-65 493,-65 732,-1 13,4 22,14 25,25 64,240 64,493 0,732 -63,232 -184,451 -366,632zm-649 299c219,-59 427,-175 600,-348 173,-173 289,-381 348,-600 59,-222 61,-456 5,-678 -222,-56 -456,-54 -677,6 -220,59 -428,174 -601,347 -173,173 -288,381 -347,601 -60,221 -62,455 -6,677 222,56 456,54 678,-5z"
       id="path115"
       style="fill:#ffffff" /><path
       class="fil0"
       d="M1388 1437c-181,-181 -303,-400 -365,-632 -64,-239 -65,-492 -1,-732 4,-13 14,-22 25,-25 240,-64 493,-64 733,1 231,62 450,183 631,365 182,181 304,400 366,632 64,239 64,493 0,732 -3,13 -13,22 -25,25 -240,64 -493,64 -732,0 -232,-63 -450,-184 -632,-366zm-298 -649c59,219 175,427 347,600 173,173 381,289 601,348 221,59 455,61 677,5 56,-222 54,-456 -5,-677 -59,-220 -175,-428 -348,-601 -172,-173 -380,-288 -600,-347 -222,-60 -455,-62 -678,-6 -55,222 -54,456 6,678z"
       id="path117"
       style="fill:#ffffff" /><path
       class="fil0"
       d="M1379 1422c-66,-248 -62,-499 0,-730 64,-240 190,-459 366,-635 9,-9 21,-12 33,-9l0 0c240,65 459,191 634,367 170,169 298,384 365,632 66,248 62,498 0,730 -64,239 -190,459 -366,634 -9,9 -22,12 -33,9l0 0c-240,-64 -459,-191 -635,-366 -169,-170 -297,-384 -364,-632zm67 -712c-59,220 -63,458 0,694 63,235 185,440 347,601 162,162 363,280 583,343 160,-164 275,-368 334,-589 59,-220 63,-458 0,-694 -63,-236 -186,-440 -347,-601 -162,-162 -363,-281 -584,-343 -159,164 -274,367 -333,589z"
       id="path119"
       style="fill:#ffffff" /><path
       class="fil0"
       d="M1422 1379c235,63 473,60 693,1 222,-60 425,-175 590,-334 -63,-220 -182,-422 -344,-584 -161,-161 -365,-283 -601,-347 -236,-63 -474,-59 -694,0 -221,59 -424,174 -589,334 63,220 181,422 343,584 162,161 366,283 602,346zm711 68c-231,62 -481,66 -729,-1 -248,-66 -463,-195 -633,-364 -175,-176 -302,-395 -366,-635l0 0c-3,-11 0,-24 9,-33 175,-175 395,-302 634,-366 232,-62 482,-66 730,0 248,67 463,195 632,365 176,175 303,395 367,634l0 0c3,12 0,25 -9,34 -176,175 -395,302 -635,366z"
       id="path121"
       style="fill:#ffffff" /><path
       class="fil0"
       d="M1446 1422c-63,235 -59,473 0,693 59,222 174,425 333,590 221,-63 422,-182 584,-344 161,-161 284,-365 347,-601 63,-236 59,-474 0,-694 -59,-221 -174,-424 -334,-589 -220,63 -421,181 -583,343 -162,162 -284,366 -347,602zm-67 711c-62,-231 -66,-481 0,-729 67,-248 195,-463 364,-633 176,-175 395,-302 635,-366l0 0c11,-3 24,0 33,9 176,175 302,395 366,634 62,232 66,482 0,730 -67,248 -195,463 -365,632 -175,176 -394,303 -634,367l0 0c-12,3 -24,0 -33,-9 -176,-176 -302,-395 -366,-635z"
       id="path123"
       style="fill:#ffffff" /><path
       class="fil0"
       d="M1422 1446c-236,63 -440,185 -602,347 -162,162 -280,363 -343,583 165,160 368,275 589,334 220,59 458,63 694,0 236,-63 440,-186 601,-347 162,-162 281,-363 344,-584 -165,-159 -368,-274 -590,-333 -220,-59 -458,-63 -693,0zm-651 297c170,-169 385,-297 633,-364 248,-66 498,-62 729,0 239,64 458,190 633,364 10,9 15,22 11,35 -64,240 -191,459 -367,634 -169,170 -384,298 -632,365 -248,66 -498,62 -730,0 -238,-64 -457,-190 -633,-364 -9,-9 -14,-22 -10,-35 64,-240 191,-459 366,-635z"
       id="path125"
       style="fill:#ffffff" /><path
       class="fil0"
       d="M1437 1437c-172,173 -288,381 -347,601 -60,221 -61,455 -6,677 223,56 456,54 678,-5 220,-59 428,-175 600,-348 173,-172 289,-380 348,-600 59,-222 61,-455 5,-678 -222,-55 -456,-54 -677,6 -220,59 -428,175 -601,347zm-414 583c62,-232 184,-450 365,-632 182,-181 400,-303 632,-365 239,-64 492,-65 732,-1 12,3 22,12 25,25 64,240 64,493 0,733 -62,231 -184,450 -366,631 -181,182 -400,304 -631,366 -240,64 -493,64 -733,0 -11,-3 -21,-12 -25,-25 -64,-239 -63,-493 1,-732z"
       id="path127"
       style="fill:#ffffff" /><path
       class="fil0"
       d="M1388 1437c-173,-172 -381,-288 -600,-347 -222,-60 -456,-61 -678,-6 -56,223 -54,456 6,678 59,220 174,428 347,600 173,173 381,289 601,348 221,59 455,61 677,5 56,-222 54,-456 -5,-677 -59,-220 -175,-428 -348,-601zm-583 -414c232,62 451,184 632,365 182,182 303,400 366,632 64,239 64,492 0,732 -3,12 -12,22 -25,25 -239,64 -493,64 -732,0 -232,-62 -451,-184 -632,-366 -182,-181 -303,-400 -365,-631 -65,-240 -65,-493 -1,-733 3,-11 12,-21 25,-25 240,-64 493,-63 732,1z"
       id="path129"
       style="fill:#ffffff" /><path
       class="fil0"
       d="M1379 1422c-63,-236 -185,-440 -346,-602 -162,-162 -364,-280 -584,-343 -160,165 -275,368 -334,589 -59,220 -63,458 0,694 64,236 186,440 347,601 162,162 364,281 584,344 159,-165 274,-368 334,-590 59,-220 62,-458 -1,-693zm-297 -651c169,170 298,385 364,633 67,248 63,498 1,729 -64,239 -190,458 -365,633 -8,10 -22,15 -35,11 -239,-64 -459,-191 -634,-367 -170,-169 -298,-384 -365,-632 -66,-248 -62,-498 0,-730 64,-238 190,-457 364,-633 9,-9 22,-14 35,-10 240,64 459,191 635,366z"
       id="path131"
       style="fill:#ffffff" /></g></svg>