<?xml version="1.0" encoding="UTF-8" standalone="no"?>
<svg
   xmlns:dc="http://purl.org/dc/elements/1.1/"
   xmlns:cc="http://creativecommons.org/ns#"
   xmlns:rdf="http://www.w3.org/1999/02/22-rdf-syntax-ns#"
   xmlns:svg="http://www.w3.org/2000/svg"
   xmlns="http://www.w3.org/2000/svg"
   xmlns:sodipodi="http://sodipodi.sourceforge.net/DTD/sodipodi-0.dtd"
   xmlns:inkscape="http://www.inkscape.org/namespaces/inkscape"
   height="2.82534in"
   style="shape-rendering:geometricPrecision; text-rendering:geometricPrecision; image-rendering:optimizeQuality; fill-rule:evenodd; clip-rule:evenodd"
   version="1.1"
   viewBox="0 0 2825 2825"
   width="2.82534in"
   xml:space="preserve"
   id="svg3937"
   sodipodi:docname="3.svg"
   inkscape:version="0.92.2 (5c3e80d, 2017-08-06)"><metadata
     id="metadata3941"><rdf:RDF><cc:Work
         rdf:about=""><dc:format>image/svg+xml</dc:format><dc:type
           rdf:resource="http://purl.org/dc/dcmitype/StillImage" /></cc:Work></rdf:RDF></metadata><sodipodi:namedview
     pagecolor="#ffffff"
     bordercolor="#666666"
     borderopacity="1"
     objecttolerance="10"
     gridtolerance="10"
     guidetolerance="10"
     inkscape:pageopacity="0"
     inkscape:pageshadow="2"
     inkscape:window-width="882"
     inkscape:window-height="661"
     id="namedview3939"
     showgrid="false"
     inkscape:zoom="1.6586315"
     inkscape:cx="135.61632"
     inkscape:cy="109.535"
     inkscape:window-x="601"
     inkscape:window-y="492"
     inkscape:window-maximized="0"
     inkscape:current-layer="svg3937" /><defs
     id="defs3928"><style
       type="text/css"
       id="style3926"><![CDATA[
    .fil0 {fill:black;fill-rule:nonzero}
   ]]></style></defs><g
     id="Layer_x0020_1"
     style="fill:#ffffff"><path
       class="fil0"
       d="M1778 49c377,100 677,344 858,658l0 0c180,313 242,695 141,1071 -101,377 -345,677 -658,858l0 0c-313,180 -695,242 -1072,141 -376,-101 -677,-345 -857,-658l0 0c-181,-313 -242,-695 -141,-1072 100,-376 344,-677 658,-857l0 0c313,-181 695,-242 1071,-141zm798 692c-172,-297 -457,-529 -816,-625 -358,-96 -721,-38 -1019,134l0 0 0 0c-297,171 -529,457 -625,815 -96,358 -38,722 134,1019l0 0 0 0c171,298 457,530 815,626 358,96 722,38 1019,-134l0 0 0 0c298,-172 530,-457 626,-816 96,-358 38,-721 -134,-1019l0 0 0 0z"
       id="path3930"
       style="fill:#ffffff" /><path
       class="fil0"
       d="M10 1388c197,-197 455,-295 714,-295 173,0 347,44 502,133 -89,-155 -133,-329 -133,-502 0,-259 98,-517 295,-714 14,-13 36,-13 49,0 197,197 296,455 296,714 0,173 -45,347 -134,502 155,-89 329,-133 503,-133 258,0 516,98 713,295 14,14 14,36 0,49 -197,197 -455,296 -713,296 -174,0 -348,-45 -503,-134 89,155 134,329 134,503 0,258 -99,516 -296,713 -13,14 -35,14 -49,0 -197,-197 -295,-455 -295,-713 0,-174 44,-348 133,-503 -155,89 -329,134 -502,134 -259,0 -517,-99 -714,-296 -13,-13 -13,-35 0,-49zm714 -226c-230,0 -459,84 -639,251 180,167 409,250 639,250 229,0 459,-83 639,-250 -180,-167 -410,-251 -639,-251zm939 940c0,-230 -83,-459 -250,-639 -167,180 -251,409 -251,639 0,229 84,459 251,639 167,-180 250,-410 250,-639zm-200 -689c180,167 409,250 639,250 229,0 459,-83 639,-250 -180,-167 -410,-251 -639,-251 -230,0 -459,84 -639,251zm-50 -1328c-167,180 -251,409 -251,639 0,229 84,459 251,639 167,-180 250,-410 250,-639 0,-230 -83,-459 -250,-639z"
       id="path3932"
       style="fill:#ffffff" /><path
       class="fil0"
       d="M438 404c279,0 531,113 714,295 123,123 214,277 261,450 46,-172 138,-327 261,-450 182,-182 434,-295 713,-295 19,0 35,15 35,34 0,279 -113,531 -296,714 -123,123 -277,214 -450,261 173,46 327,138 450,261 183,182 296,434 296,713 0,19 -16,35 -35,35 -279,0 -531,-113 -713,-296 -123,-123 -215,-277 -261,-450 -47,173 -138,327 -261,450 -183,183 -435,296 -714,296 -19,0 -34,-16 -34,-35 0,-279 113,-531 295,-713 123,-123 277,-215 450,-261 -173,-47 -327,-138 -450,-261 -182,-183 -295,-435 -295,-714 0,-19 15,-34 34,-34zm665 344c-163,-162 -384,-265 -629,-274 9,245 112,466 274,629 163,162 384,265 629,274 -9,-245 -112,-466 -274,-629zm0 1329c162,-162 265,-384 274,-629 -245,9 -466,112 -629,275 -162,162 -265,383 -274,629 245,-9 466,-113 629,-275zm345 -629c9,245 112,467 275,629 162,162 383,266 629,275 -9,-246 -113,-467 -275,-629 -162,-163 -384,-266 -629,-275zm904 -974c-246,9 -467,112 -629,274 -163,163 -266,384 -275,629 245,-9 467,-112 629,-274 162,-163 266,-384 275,-629z"
       id="path3934"
       style="fill:#ffffff" /></g></svg>