<?xml version="1.0" encoding="UTF-8" standalone="no"?>
<svg
   xmlns:dc="http://purl.org/dc/elements/1.1/"
   xmlns:cc="http://creativecommons.org/ns#"
   xmlns:rdf="http://www.w3.org/1999/02/22-rdf-syntax-ns#"
   xmlns:svg="http://www.w3.org/2000/svg"
   xmlns="http://www.w3.org/2000/svg"
   xmlns:sodipodi="http://sodipodi.sourceforge.net/DTD/sodipodi-0.dtd"
   xmlns:inkscape="http://www.inkscape.org/namespaces/inkscape"
   height="2.82534in"
   style="shape-rendering:geometricPrecision; text-rendering:geometricPrecision; image-rendering:optimizeQuality; fill-rule:evenodd; clip-rule:evenodd"
   version="1.1"
   viewBox="0 0 2825 2825"
   width="2.82534in"
   xml:space="preserve"
   id="svg110"
   sodipodi:docname="4.svg"
   inkscape:version="0.92.2 (5c3e80d, 2017-08-06)"><metadata
     id="metadata114"><rdf:RDF><cc:Work
         rdf:about=""><dc:format>image/svg+xml</dc:format><dc:type
           rdf:resource="http://purl.org/dc/dcmitype/StillImage" /></cc:Work></rdf:RDF></metadata><sodipodi:namedview
     pagecolor="#ffffff"
     bordercolor="#666666"
     borderopacity="1"
     objecttolerance="10"
     gridtolerance="10"
     guidetolerance="10"
     inkscape:pageopacity="0"
     inkscape:pageshadow="2"
     inkscape:window-width="2560"
     inkscape:window-height="1341"
     id="namedview112"
     showgrid="false"
     inkscape:zoom="2.1162644"
     inkscape:cx="-55.25543"
     inkscape:cy="154.00695"
     inkscape:window-x="0"
     inkscape:window-y="28"
     inkscape:window-maximized="1"
     inkscape:current-layer="svg110" /><defs
     id="defs93"><style
       type="text/css"
       id="style91"><![CDATA[
    .fil0 {fill:black;fill-rule:nonzero}
   ]]></style></defs><g
     id="Layer_x0020_1"
     style="fill:#ffffff"><path
       class="fil0"
       d="M1778 49c377,100 677,344 858,658l0 0c180,313 242,695 141,1071 -101,377 -345,677 -658,858l0 0c-313,180 -695,242 -1072,141 -376,-101 -677,-345 -857,-658l0 0c-181,-313 -242,-695 -141,-1072 100,-376 344,-677 658,-857l0 0c313,-181 695,-242 1071,-141zm798 692c-172,-297 -457,-529 -816,-625 -358,-96 -721,-38 -1019,134l0 0 0 0c-297,171 -529,457 -625,815 -96,358 -38,722 134,1019l0 0 0 0c171,298 457,530 815,626 358,96 722,38 1019,-134l0 0 0 0c298,-172 530,-457 626,-816 96,-358 38,-721 -134,-1019l0 0 0 0z"
       id="path95"
       style="fill:#ffffff" /><path
       class="fil0"
       d="M10 1388c197,-197 455,-295 714,-295 173,0 347,44 502,133 -89,-155 -133,-329 -133,-502 0,-259 98,-517 295,-714 14,-13 36,-13 49,0 197,197 296,455 296,714 0,173 -45,347 -134,502 155,-89 329,-133 503,-133 258,0 516,98 713,295 14,14 14,36 0,49 -197,197 -455,296 -713,296 -174,0 -348,-45 -503,-134 89,155 134,329 134,503 0,258 -99,516 -296,713 -13,14 -35,14 -49,0 -197,-197 -295,-455 -295,-713 0,-174 44,-348 133,-503 -155,89 -329,134 -502,134 -259,0 -517,-99 -714,-296 -13,-13 -13,-35 0,-49zm714 -226c-230,0 -459,84 -639,251 180,167 409,250 639,250 229,0 459,-83 639,-250 -180,-167 -410,-251 -639,-251zm939 940c0,-230 -83,-459 -250,-639 -167,180 -251,409 -251,639 0,229 84,459 251,639 167,-180 250,-410 250,-639zm-200 -689c180,167 409,250 639,250 229,0 459,-83 639,-250 -180,-167 -410,-251 -639,-251 -230,0 -459,84 -639,251zm-50 -1328c-167,180 -251,409 -251,639 0,229 84,459 251,639 167,-180 250,-410 250,-639 0,-230 -83,-459 -250,-639z"
       id="path97"
       style="fill:#ffffff" /><path
       class="fil0"
       d="M210 690c269,-72 542,-28 766,101 151,87 279,213 369,368 0,-179 48,-351 134,-501 0,-1 1,-1 1,-2 129,-224 344,-398 613,-470 18,-5 37,6 42,24 72,269 29,541 -100,764 0,1 0,1 -1,2 -87,151 -212,279 -367,369 179,0 352,48 502,135 224,129 398,344 471,613 4,18 -7,37 -25,42 -268,72 -540,29 -764,-100 0,0 -1,0 -2,-1 -150,-87 -278,-212 -368,-367 0,179 -49,352 -136,502 -129,224 -343,398 -612,471 -19,4 -38,-7 -43,-25 -72,-269 -28,-542 101,-766 87,-150 213,-279 368,-368 -179,0 -352,-49 -503,-136l0 0 0 0c-224,-129 -398,-343 -470,-612 -5,-19 6,-38 24,-43zm731 161c-198,-115 -439,-157 -678,-102 72,234 229,422 428,536l0 0c198,115 439,157 678,103 -72,-235 -229,-422 -428,-537zm344 1284c115,-199 157,-440 103,-679 -235,72 -422,229 -537,428 -115,199 -157,439 -102,679 234,-73 422,-230 536,-428zm171 -697c72,234 229,422 428,536 1,1 1,1 2,1 198,114 438,156 677,102 -73,-235 -230,-422 -428,-537 -199,-115 -440,-157 -679,-102zm621 -1175c-235,72 -422,229 -537,428 0,0 -1,1 -1,1 -114,199 -156,439 -101,677 234,-72 422,-229 536,-428 1,0 1,-1 1,-1 114,-199 156,-439 102,-677z"
       id="path99"
       style="fill:#ffffff" /><path
       class="fil0"
       d="M733 186c269,72 483,246 612,470 87,151 136,323 136,502 90,-154 218,-280 368,-367l0 0 0 0c224,-129 497,-173 766,-101 18,5 29,24 25,43 -73,269 -247,483 -471,612l0 0 0 0c-150,87 -323,135 -502,136 155,89 280,218 367,368 129,224 173,497 101,766 -5,18 -24,29 -42,25 -269,-73 -484,-247 -613,-471l0 0 0 0c-87,-150 -135,-323 -135,-502 -90,155 -218,280 -369,367 -224,129 -497,173 -766,101 -18,-5 -29,-24 -24,-42 72,-269 246,-484 470,-613 151,-87 323,-135 502,-135 -154,-90 -280,-218 -367,-369 0,-1 -1,-1 -1,-2 -128,-223 -172,-495 -100,-764 5,-18 24,-29 43,-24zm552 505c-114,-199 -302,-356 -536,-428 -55,238 -13,478 101,677 0,0 1,1 1,1 115,199 302,356 537,428 54,-239 12,-480 -103,-678zm-344 1283c199,-114 356,-302 428,-536 -239,-55 -480,-13 -678,102 -199,115 -356,302 -428,537 239,54 480,12 678,-103zm497 -518c-55,239 -13,480 102,679l0 0c115,198 302,355 537,428 54,-240 12,-480 -103,-679 -114,-199 -302,-356 -536,-428zm1125 -707c-240,-55 -480,-13 -679,102l0 0c-199,115 -356,302 -428,537 239,54 480,12 679,-103l0 0c198,-114 355,-302 428,-536z"
       id="path101"
       style="fill:#ffffff" /><path
       class="fil0"
       d="M1801 67c138,241 166,515 99,763 -45,168 -133,324 -260,451 173,-46 353,-44 521,1 249,67 473,228 612,470l1 0c9,17 3,38 -13,47 -241,140 -516,168 -766,101 -168,-45 -324,-133 -451,-260 46,174 45,353 0,521 -67,249 -229,473 -471,613 -16,9 -37,3 -47,-13 -139,-241 -168,-516 -101,-766 45,-168 133,-324 260,-451 -173,46 -353,45 -521,0 -249,-67 -473,-229 -612,-471 -10,-16 -4,-37 12,-47 242,-139 517,-168 766,-101 168,45 324,133 451,260 -46,-173 -44,-353 1,-521 66,-248 227,-471 467,-611 14,-9 33,-8 45,4 3,3 5,7 7,10zm32 745c60,-222 38,-465 -77,-682 -208,130 -348,330 -407,552 -60,222 -38,465 77,683 208,-131 348,-331 407,-553zm-1151 665c222,59 465,38 683,-77 -131,-208 -331,-348 -553,-408 -222,-59 -465,-38 -682,77 130,208 330,348 552,408zm718 -16c-208,130 -348,331 -408,552 -59,222 -38,465 77,683 208,-131 348,-331 408,-553 59,-222 38,-465 -77,-682zm1296 295c-131,-208 -331,-348 -553,-407 -222,-60 -465,-38 -682,77 130,208 331,348 552,407 222,60 465,38 683,-77z"
       id="path103"
       style="fill:#ffffff" /><path
       class="fil0"
       d="M2774 1073c-140,242 -364,404 -613,471 -168,45 -347,46 -521,0 127,127 215,283 260,451 67,249 39,522 -99,763 -2,4 -4,7 -7,10 -12,12 -31,14 -45,4 -240,-140 -401,-363 -467,-611 -45,-168 -47,-348 -1,-521 -127,127 -283,215 -451,260 -248,67 -522,39 -763,-99 -3,-2 -7,-4 -10,-7 -12,-12 -13,-31 -4,-45 140,-240 363,-401 611,-467 168,-45 348,-47 521,-1 -127,-127 -215,-283 -260,-451 -67,-249 -38,-524 101,-766 10,-16 31,-22 47,-12 242,139 404,363 471,612 45,168 46,348 0,521 127,-127 283,-215 451,-260 250,-67 525,-38 766,101 16,10 22,31 13,47zm-631 404c222,-60 422,-200 553,-408 -218,-115 -461,-136 -683,-77 -221,60 -422,200 -552,408 217,115 460,136 682,77zm-1151 -665c60,222 200,422 408,553 115,-218 136,-461 77,-683 -60,-222 -200,-422 -408,-552 -115,217 -136,460 -77,682zm373 614c-218,-115 -461,-137 -683,-77 -222,59 -422,199 -552,407 217,115 460,137 682,77 222,-59 422,-199 553,-407zm391 1270c115,-218 137,-461 77,-683 -59,-221 -199,-422 -407,-552 -115,217 -137,460 -77,682 59,222 199,422 407,553z"
       id="path105"
       style="fill:#ffffff" /><path
       class="fil0"
       d="M438 404c279,0 531,113 714,295 123,123 214,277 261,450 46,-172 138,-327 261,-450 182,-182 434,-295 713,-295 19,0 35,15 35,34 0,279 -113,531 -296,714 -123,123 -277,214 -450,261 173,46 327,138 450,261 183,182 296,434 296,713 0,19 -16,35 -35,35 -279,0 -531,-113 -713,-296 -123,-123 -215,-277 -261,-450 -47,173 -138,327 -261,450 -183,183 -435,296 -714,296 -19,0 -34,-16 -34,-35 0,-279 113,-531 295,-713 123,-123 277,-215 450,-261 -173,-47 -327,-138 -450,-261 -182,-183 -295,-435 -295,-714 0,-19 15,-34 34,-34zm665 344c-163,-162 -384,-265 -629,-274 9,245 112,466 274,629 163,162 384,265 629,274 -9,-245 -112,-466 -274,-629zm0 1329c162,-162 265,-384 274,-629 -245,9 -466,112 -629,275 -162,162 -265,383 -274,629 245,-9 466,-113 629,-275zm345 -629c9,245 112,467 275,629 162,162 383,266 629,275 -9,-246 -113,-467 -275,-629 -162,-163 -384,-266 -629,-275zm904 -974c-246,9 -467,112 -629,274 -163,163 -266,384 -275,629 245,-9 467,-112 629,-274 162,-163 266,-384 275,-629z"
       id="path107"
       style="fill:#ffffff" /></g></svg>