<?xml version="1.0" encoding="UTF-8" standalone="no"?>
<svg
   xmlns:dc="http://purl.org/dc/elements/1.1/"
   xmlns:cc="http://creativecommons.org/ns#"
   xmlns:rdf="http://www.w3.org/1999/02/22-rdf-syntax-ns#"
   xmlns:svg="http://www.w3.org/2000/svg"
   xmlns="http://www.w3.org/2000/svg"
   xmlns:sodipodi="http://sodipodi.sourceforge.net/DTD/sodipodi-0.dtd"
   xmlns:inkscape="http://www.inkscape.org/namespaces/inkscape"
   height="2.82534in"
   style="shape-rendering:geometricPrecision; text-rendering:geometricPrecision; image-rendering:optimizeQuality; fill-rule:evenodd; clip-rule:evenodd"
   version="1.1"
   viewBox="0 0 2825 2825"
   width="2.82534in"
   xml:space="preserve"
   id="svg211"
   sodipodi:docname="5.svg"
   inkscape:version="0.92.2 (5c3e80d, 2017-08-06)"><metadata
     id="metadata215"><rdf:RDF><cc:Work
         rdf:about=""><dc:format>image/svg+xml</dc:format><dc:type
           rdf:resource="http://purl.org/dc/dcmitype/StillImage" /></cc:Work></rdf:RDF></metadata><sodipodi:namedview
     pagecolor="#ffffff"
     bordercolor="#666666"
     borderopacity="1"
     objecttolerance="10"
     gridtolerance="10"
     guidetolerance="10"
     inkscape:pageopacity="0"
     inkscape:pageshadow="2"
     inkscape:window-width="2560"
     inkscape:window-height="1341"
     id="namedview213"
     showgrid="false"
     inkscape:zoom="2.9928499"
     inkscape:cx="61.630896"
     inkscape:cy="153.32976"
     inkscape:window-x="0"
     inkscape:window-y="28"
     inkscape:window-maximized="1"
     inkscape:current-layer="svg211" /><defs
     id="defs192"><style
       type="text/css"
       id="style190"><![CDATA[
    .fil0 {fill:black;fill-rule:nonzero}
   ]]></style></defs><g
     id="Layer_x0020_1"
     style="fill:#ffffff"><path
       class="fil0"
       d="M1778 49c377,100 677,344 858,658l0 0c180,313 242,695 141,1071 -101,377 -345,677 -658,858l0 0c-313,180 -695,242 -1072,141 -376,-101 -677,-345 -857,-658l0 0c-181,-313 -242,-695 -141,-1072 100,-376 344,-677 658,-857l0 0c313,-181 695,-242 1071,-141zm798 692c-172,-297 -457,-529 -816,-625 -358,-96 -721,-38 -1019,134l0 0 0 0c-297,171 -529,457 -625,815 -96,358 -38,722 134,1019l0 0 0 0c171,298 457,530 815,626 358,96 722,38 1019,-134l0 0 0 0c298,-172 530,-457 626,-816 96,-358 38,-721 -134,-1019l0 0 0 0z"
       id="path194"
       style="fill:#ffffff" /><path
       class="fil0"
       d="M10 1388c197,-197 455,-295 714,-295 173,0 347,44 502,133 -89,-155 -133,-329 -133,-502 0,-259 98,-517 295,-714 14,-13 36,-13 49,0 197,197 296,455 296,714 0,173 -45,347 -134,502 155,-89 329,-133 503,-133 258,0 516,98 713,295 14,14 14,36 0,49 -197,197 -455,296 -713,296 -174,0 -348,-45 -503,-134 89,155 134,329 134,503 0,258 -99,516 -296,713 -13,14 -35,14 -49,0 -197,-197 -295,-455 -295,-713 0,-174 44,-348 133,-503 -155,89 -329,134 -502,134 -259,0 -517,-99 -714,-296 -13,-13 -13,-35 0,-49zm714 -226c-230,0 -459,84 -639,251 180,167 409,250 639,250 229,0 459,-83 639,-250 -180,-167 -410,-251 -639,-251zm939 940c0,-230 -83,-459 -250,-639 -167,180 -251,409 -251,639 0,229 84,459 251,639 167,-180 250,-410 250,-639zm-200 -689c180,167 409,250 639,250 229,0 459,-83 639,-250 -180,-167 -410,-251 -639,-251 -230,0 -459,84 -639,251zm-50 -1328c-167,180 -251,409 -251,639 0,229 84,459 251,639 167,-180 250,-410 250,-639 0,-230 -83,-459 -250,-639z"
       id="path196"
       style="fill:#ffffff" /><path
       class="fil0"
       d="M1801 67c138,241 166,515 99,763 -45,168 -133,324 -260,451 173,-46 353,-44 521,1 249,67 473,228 612,470l1 0c9,17 3,38 -13,47 -241,140 -516,168 -766,101 -168,-45 -324,-133 -451,-260 46,174 45,353 0,521 -67,249 -229,473 -471,613 -16,9 -37,3 -47,-13 -139,-241 -168,-516 -101,-766 45,-168 133,-324 260,-451 -173,46 -353,45 -521,0 -249,-67 -473,-229 -612,-471 -10,-16 -4,-37 12,-47 242,-139 517,-168 766,-101 168,45 324,133 451,260 -46,-173 -44,-353 1,-521 66,-248 227,-471 467,-611 14,-9 33,-8 45,4 3,3 5,7 7,10zm32 745c60,-222 38,-465 -77,-682 -208,130 -348,330 -407,552 -60,222 -38,465 77,683 208,-131 348,-331 407,-553zm-1151 665c222,59 465,38 683,-77 -131,-208 -331,-348 -553,-408 -222,-59 -465,-38 -682,77 130,208 330,348 552,408zm718 -16c-208,130 -348,331 -408,552 -59,222 -38,465 77,683 208,-131 348,-331 408,-553 59,-222 38,-465 -77,-682zm1296 295c-131,-208 -331,-348 -553,-407 -222,-60 -465,-38 -682,77 130,208 331,348 552,407 222,60 465,38 683,-77z"
       id="path198"
       style="fill:#ffffff" /><path
       class="fil0"
       d="M2774 1073c-140,242 -364,404 -613,471 -168,45 -347,46 -521,0 127,127 215,283 260,451 67,249 39,522 -99,763 -2,4 -4,7 -7,10 -12,12 -31,14 -45,4 -240,-140 -401,-363 -467,-611 -45,-168 -47,-348 -1,-521 -127,127 -283,215 -451,260 -248,67 -522,39 -763,-99 -3,-2 -7,-4 -10,-7 -12,-12 -13,-31 -4,-45 140,-240 363,-401 611,-467 168,-45 348,-47 521,-1 -127,-127 -215,-283 -260,-451 -67,-249 -38,-524 101,-766 10,-16 31,-22 47,-12 242,139 404,363 471,612 45,168 46,348 0,521 127,-127 283,-215 451,-260 250,-67 525,-38 766,101 16,10 22,31 13,47zm-631 404c222,-60 422,-200 553,-408 -218,-115 -461,-136 -683,-77 -221,60 -422,200 -552,408 217,115 460,136 682,77zm-1151 -665c60,222 200,422 408,553 115,-218 136,-461 77,-683 -60,-222 -200,-422 -408,-552 -115,217 -136,460 -77,682zm373 614c-218,-115 -461,-137 -683,-77 -222,59 -422,199 -552,407 217,115 460,137 682,77 222,-59 422,-199 553,-407zm391 1270c115,-218 137,-461 77,-683 -59,-221 -199,-422 -407,-552 -115,217 -137,460 -77,682 59,222 199,422 407,553z"
       id="path200"
       style="fill:#ffffff" /><path
       class="fil0"
       d="M1893 932c120,-9 227,-61 307,-140 79,-80 131,-187 140,-307 -119,9 -227,61 -306,141 -80,79 -132,187 -141,306zm356 -91c-100,100 -239,162 -392,162 -19,0 -34,-16 -34,-35 0,-153 62,-291 162,-391 100,-101 238,-162 391,-162 19,0 35,15 35,34 0,153 -62,291 -162,392z"
       id="path202"
       style="fill:#ffffff" /><path
       class="fil0"
       d="M485 2340c120,-9 227,-61 307,-140 79,-80 131,-187 140,-307 -119,9 -227,61 -306,141 -80,79 -132,187 -141,306zm356 -91c-101,100 -239,162 -392,162 -19,0 -34,-16 -34,-35 0,-153 61,-291 162,-391 100,-100 238,-162 391,-162 19,0 35,15 35,34 0,153 -62,292 -162,392z"
       id="path204"
       style="fill:#ffffff" /><path
       class="fil0"
       d="M1893 1893c9,120 61,227 141,307 79,79 187,131 306,140 -9,-119 -61,-227 -140,-306 -80,-80 -187,-132 -307,-141zm92 356c-100,-100 -162,-239 -162,-392 0,-19 15,-34 34,-34 153,0 292,62 392,162 100,100 162,238 162,391 0,19 -16,35 -35,35 -153,0 -291,-62 -391,-162z"
       id="path206"
       style="fill:#ffffff" /><path
       class="fil0"
       d="M485 485c9,120 61,227 141,307 79,79 187,131 306,140 -9,-119 -61,-227 -140,-306 -80,-80 -187,-132 -307,-141zm92 356c-101,-101 -162,-239 -162,-392 0,-19 15,-34 34,-34 153,0 291,61 392,162 100,100 162,238 162,391 0,19 -16,35 -35,35 -153,0 -291,-62 -391,-162z"
       id="path208"
       style="fill:#ffffff" /></g></svg>