<?xml version="1.0" encoding="UTF-8" standalone="no"?>
<svg
   xmlns:dc="http://purl.org/dc/elements/1.1/"
   xmlns:cc="http://creativecommons.org/ns#"
   xmlns:rdf="http://www.w3.org/1999/02/22-rdf-syntax-ns#"
   xmlns:svg="http://www.w3.org/2000/svg"
   xmlns="http://www.w3.org/2000/svg"
   xmlns:sodipodi="http://sodipodi.sourceforge.net/DTD/sodipodi-0.dtd"
   xmlns:inkscape="http://www.inkscape.org/namespaces/inkscape"
   height="2.82535in"
   style="shape-rendering:geometricPrecision; text-rendering:geometricPrecision; image-rendering:optimizeQuality; fill-rule:evenodd; clip-rule:evenodd"
   version="1.1"
   viewBox="0 0 2825 2825"
   width="2.82535in"
   xml:space="preserve"
   id="svg339"
   sodipodi:docname="6.svg"
   inkscape:version="0.92.2 (5c3e80d, 2017-08-06)"><metadata
     id="metadata343"><rdf:RDF><cc:Work
         rdf:about=""><dc:format>image/svg+xml</dc:format><dc:type
           rdf:resource="http://purl.org/dc/dcmitype/StillImage" /></cc:Work></rdf:RDF></metadata><sodipodi:namedview
     pagecolor="#ffffff"
     bordercolor="#666666"
     borderopacity="1"
     objecttolerance="10"
     gridtolerance="10"
     guidetolerance="10"
     inkscape:pageopacity="0"
     inkscape:pageshadow="2"
     inkscape:window-width="833"
     inkscape:window-height="632"
     id="namedview341"
     showgrid="false"
     inkscape:zoom="1.5600597"
     inkscape:cx="135.6168"
     inkscape:cy="135.6168"
     inkscape:window-x="0"
     inkscape:window-y="28"
     inkscape:window-maximized="0"
     inkscape:current-layer="svg339" /><defs
     id="defs302"><style
       type="text/css"
       id="style300"><![CDATA[
    .fil0 {fill:black;fill-rule:nonzero}
   ]]></style></defs><g
     id="Layer_x0020_1"
     style="fill:#ffffff"><path
       class="fil0"
       d="M1778 49c377,100 677,344 858,658l0 0c180,313 242,695 141,1071 -101,377 -345,677 -658,858l0 0c-313,180 -695,242 -1072,141 -376,-101 -677,-345 -857,-658l0 0c-181,-313 -242,-695 -141,-1072 100,-376 344,-677 658,-857l0 0c313,-181 695,-242 1071,-141zm798 692c-172,-297 -457,-529 -816,-625 -358,-96 -721,-38 -1019,134l0 0 0 0c-297,171 -529,457 -625,815 -96,358 -38,722 134,1019l0 0 0 0c171,298 457,530 815,626 358,96 722,38 1019,-134l0 0 0 0c298,-172 530,-457 626,-816 96,-358 38,-721 -134,-1019l0 0 0 0z"
       id="path304"
       style="fill:#ffffff" /><path
       class="fil0"
       d="M689 2102c0,-200 81,-381 212,-512 131,-131 312,-212 512,-212 19,0 34,15 34,35 0,200 -81,380 -212,511 -131,131 -311,212 -511,212 -19,0 -35,-15 -35,-34zm261 -463c-111,111 -182,260 -191,427 167,-9 317,-80 427,-191 111,-110 182,-260 191,-427 -166,9 -316,80 -427,191z"
       id="path306"
       style="fill:#ffffff" /><path
       class="fil0"
       d="M759 759c9,167 80,317 191,427 111,111 261,182 427,191 -9,-166 -80,-316 -191,-427 -110,-111 -260,-182 -427,-191zm142 476c-131,-131 -212,-311 -212,-511 0,-19 16,-35 35,-35 200,0 380,81 511,212 131,131 212,312 212,512 0,19 -15,34 -34,34 -200,0 -381,-81 -512,-212z"
       id="path308"
       style="fill:#ffffff" /><path
       class="fil0"
       d="M688 2066c-9,-167 -80,-316 -191,-427 -110,-111 -260,-182 -427,-191 9,167 81,317 191,427 111,111 261,182 427,191zm-142 -476c131,131 212,312 212,512 0,19 -15,34 -34,34 -200,0 -381,-81 -512,-212 -131,-131 -212,-311 -212,-511 0,-20 16,-35 35,-35 200,0 380,81 511,212z"
       id="path310"
       style="fill:#ffffff" /><path
       class="fil0"
       d="M758 724c0,200 -81,380 -212,511 -131,131 -311,212 -511,212 -19,0 -35,-15 -35,-34 0,-200 81,-381 212,-512 131,-131 312,-212 512,-212 19,0 34,16 34,35zm-261 462c111,-110 182,-260 191,-427 -166,9 -316,80 -427,191 -110,111 -182,261 -191,427 167,-9 317,-80 427,-191z"
       id="path312"
       style="fill:#ffffff" /><path
       class="fil0"
       d="M2066 2066c-9,-167 -80,-316 -191,-427 -110,-111 -260,-182 -427,-191 9,167 80,317 191,427 111,111 260,182 427,191zm-142 -476c131,131 212,312 212,512 0,19 -15,34 -34,34 -200,0 -381,-81 -512,-212 -131,-131 -212,-311 -212,-511 0,-20 15,-35 35,-35 200,0 380,81 511,212z"
       id="path314"
       style="fill:#ffffff" /><path
       class="fil0"
       d="M2136 724c0,200 -81,380 -212,511 -131,131 -311,212 -511,212 -20,0 -35,-15 -35,-34 0,-200 81,-381 212,-512 131,-131 312,-212 512,-212 19,0 34,16 34,35zm-261 462c111,-110 182,-260 191,-427 -167,9 -316,80 -427,191 -111,111 -182,261 -191,427 167,-9 317,-80 427,-191z"
       id="path316"
       style="fill:#ffffff" /><path
       class="fil0"
       d="M2067 2102c0,-200 81,-381 212,-512 131,-131 312,-212 512,-212 19,0 34,15 34,35 0,200 -81,380 -212,511 -131,131 -312,212 -511,212 -20,0 -35,-15 -35,-34zm261 -463c-111,111 -182,260 -191,427 167,-9 317,-80 427,-191 111,-110 182,-260 191,-427 -167,9 -316,80 -427,191z"
       id="path318"
       style="fill:#ffffff" /><path
       class="fil0"
       d="M2137 759c9,167 80,317 191,427 111,111 260,182 427,191 -9,-166 -80,-316 -191,-427 -110,-111 -260,-182 -427,-191zm142 476c-131,-131 -212,-311 -212,-511 0,-19 15,-35 35,-35 199,0 380,81 511,212 131,131 212,312 212,512 0,19 -15,34 -34,34 -200,0 -381,-81 -512,-212z"
       id="path320"
       style="fill:#ffffff" /><path
       class="fil0"
       d="M724 689c200,0 380,81 511,212 131,131 212,312 212,512 0,19 -15,34 -34,34 -200,0 -381,-81 -512,-212 -131,-131 -212,-311 -212,-511 0,-19 16,-35 35,-35zm462 261c-110,-111 -260,-182 -427,-191 9,167 80,317 191,427 111,111 261,182 427,191 -9,-166 -80,-316 -191,-427z"
       id="path322"
       style="fill:#ffffff" /><path
       class="fil0"
       d="M2066 759c-167,9 -316,80 -427,191 -111,111 -182,261 -191,427 167,-9 317,-80 427,-191 111,-110 182,-260 191,-427zm-476 142c131,-131 312,-212 512,-212 19,0 34,16 34,35 0,200 -81,380 -212,511 -131,131 -311,212 -511,212 -20,0 -35,-15 -35,-34 0,-200 81,-381 212,-512z"
       id="path324"
       style="fill:#ffffff" /><path
       class="fil0"
       d="M759 688c167,-9 317,-80 427,-191 111,-110 182,-260 191,-427 -166,9 -316,81 -427,191 -111,111 -182,261 -191,427zm476 -142c-131,131 -311,212 -511,212 -19,0 -35,-15 -35,-34 0,-200 81,-381 212,-512 131,-131 312,-212 512,-212 19,0 34,16 34,35 0,200 -81,380 -212,511z"
       id="path326"
       style="fill:#ffffff" /><path
       class="fil0"
       d="M2102 758c-200,0 -381,-81 -512,-212 -131,-131 -212,-311 -212,-511 0,-19 15,-35 35,-35 200,0 380,81 511,212 131,131 212,312 212,512 0,19 -15,34 -34,34zm-463 -261c111,111 260,182 427,191 -9,-166 -80,-316 -191,-427 -110,-110 -260,-182 -427,-191 9,167 80,317 191,427z"
       id="path328"
       style="fill:#ffffff" /><path
       class="fil0"
       d="M759 2066c167,-9 317,-80 427,-191 111,-110 182,-260 191,-427 -166,9 -316,80 -427,191 -111,111 -182,260 -191,427zm476 -142c-131,131 -311,212 -511,212 -19,0 -35,-15 -35,-34 0,-200 81,-381 212,-512 131,-131 312,-212 512,-212 19,0 34,15 34,35 0,200 -81,380 -212,511z"
       id="path330"
       style="fill:#ffffff" /><path
       class="fil0"
       d="M2102 2136c-200,0 -381,-81 -512,-212 -131,-131 -212,-311 -212,-511 0,-20 15,-35 35,-35 200,0 380,81 511,212 131,131 212,312 212,512 0,19 -15,34 -34,34zm-463 -261c111,111 260,182 427,191 -9,-167 -80,-316 -191,-427 -110,-111 -260,-182 -427,-191 9,167 80,317 191,427z"
       id="path332"
       style="fill:#ffffff" /><path
       class="fil0"
       d="M724 2067c200,0 380,81 511,212 131,131 212,312 212,512 0,19 -15,34 -34,34 -200,0 -381,-81 -512,-212 -131,-131 -212,-312 -212,-511 0,-20 16,-35 35,-35zm462 261c-110,-111 -260,-182 -427,-191 9,167 80,317 191,427 111,111 261,182 427,191 -9,-167 -80,-316 -191,-427z"
       id="path334"
       style="fill:#ffffff" /><path
       class="fil0"
       d="M2066 2137c-167,9 -316,80 -427,191 -111,111 -182,260 -191,427 167,-9 317,-80 427,-191 111,-110 182,-260 191,-427zm-476 142c131,-131 312,-212 512,-212 19,0 34,15 34,35 0,199 -81,380 -212,511 -131,131 -311,212 -511,212 -20,0 -35,-15 -35,-34 0,-200 81,-381 212,-512z"
       id="path336"
       style="fill:#ffffff" /></g></svg>