<?xml version="1.0" encoding="UTF-8" standalone="no"?>
<svg
   xmlns:dc="http://purl.org/dc/elements/1.1/"
   xmlns:cc="http://creativecommons.org/ns#"
   xmlns:rdf="http://www.w3.org/1999/02/22-rdf-syntax-ns#"
   xmlns:svg="http://www.w3.org/2000/svg"
   xmlns="http://www.w3.org/2000/svg"
   xmlns:sodipodi="http://sodipodi.sourceforge.net/DTD/sodipodi-0.dtd"
   xmlns:inkscape="http://www.inkscape.org/namespaces/inkscape"
   height="2.82535in"
   style="shape-rendering:geometricPrecision; text-rendering:geometricPrecision; image-rendering:optimizeQuality; fill-rule:evenodd; clip-rule:evenodd"
   version="1.1"
   viewBox="0 0 2825 2825"
   width="2.82535in"
   xml:space="preserve"
   id="svg523"
   sodipodi:docname="7.svg"
   inkscape:version="0.92.2 (5c3e80d, 2017-08-06)"><metadata
     id="metadata527"><rdf:RDF><cc:Work
         rdf:about=""><dc:format>image/svg+xml</dc:format><dc:type
           rdf:resource="http://purl.org/dc/dcmitype/StillImage" /></cc:Work></rdf:RDF></metadata><sodipodi:namedview
     pagecolor="#ffffff"
     bordercolor="#666666"
     borderopacity="1"
     objecttolerance="10"
     gridtolerance="10"
     guidetolerance="10"
     inkscape:pageopacity="0"
     inkscape:pageshadow="2"
     inkscape:window-width="901"
     inkscape:window-height="611"
     id="namedview525"
     showgrid="false"
     inkscape:zoom="1.4886845"
     inkscape:cx="135.6168"
     inkscape:cy="159.93493"
     inkscape:window-x="1034"
     inkscape:window-y="531"
     inkscape:window-maximized="0"
     inkscape:current-layer="svg523" /><defs
     id="defs490"><style
       type="text/css"
       id="style488"><![CDATA[
    .fil0 {fill:black;fill-rule:nonzero}
   ]]></style></defs><g
     id="Layer_x0020_1"
     style="fill:#ffffff"><path
       class="fil0"
       d="M1778 49c377,100 677,344 858,658l0 0c180,313 242,695 141,1071 -101,377 -345,677 -658,858l0 0c-313,180 -695,242 -1072,141 -376,-101 -677,-345 -857,-658l0 0c-181,-313 -242,-695 -141,-1072 100,-376 344,-677 658,-857l0 0c313,-181 695,-242 1071,-141zm798 692c-172,-297 -457,-529 -816,-625 -358,-96 -721,-38 -1019,134l0 0 0 0c-297,171 -529,457 -625,815 -96,358 -38,722 134,1019l0 0 0 0c171,298 457,530 815,626 358,96 722,38 1019,-134l0 0 0 0c298,-172 530,-457 626,-816 96,-358 38,-721 -134,-1019l0 0 0 0z"
       id="path492"
       style="fill:#ffffff" /><path
       class="fil0"
       d="M321 842c148,134 334,202 521,202 187,0 373,-68 520,-202 -147,-135 -333,-202 -520,-202 -187,0 -373,67 -521,202zm521 271c-216,0 -431,-82 -595,-247 -14,-13 -14,-35 0,-49 164,-164 379,-246 595,-246 215,0 431,82 595,246 14,14 14,36 0,49 -164,165 -380,247 -595,247z"
       id="path494"
       style="fill:#ffffff" /><path
       class="fil0"
       d="M1362 1983c-147,-134 -333,-201 -520,-201 -187,0 -373,67 -521,201 148,135 334,202 521,202 187,0 373,-67 520,-202zm-520 -271c215,0 431,82 595,247 14,13 14,35 0,49 -164,164 -380,247 -595,247 -216,0 -431,-83 -595,-247 -14,-14 -14,-36 0,-49 164,-165 379,-247 595,-247z"
       id="path496"
       style="fill:#ffffff" /><path
       class="fil0"
       d="M296 817l0 0c164,165 246,380 246,596 0,215 -82,431 -246,595l0 0c-14,14 -36,14 -49,0 -165,-164 -247,-380 -247,-595 0,-216 82,-431 247,-596 13,-13 35,-13 49,0zm177 596c0,-187 -67,-374 -202,-521 -134,147 -202,334 -202,521 0,186 68,373 202,520 135,-147 202,-334 202,-520z"
       id="path498"
       style="fill:#ffffff" /><path
       class="fil0"
       d="M2579 866c-165,165 -380,247 -596,247 -215,0 -430,-82 -595,-247 -13,-13 -13,-35 0,-49 165,-164 380,-246 595,-246 216,0 431,82 596,246 13,14 13,36 0,49zm-596 178c187,0 374,-68 521,-202 -147,-135 -334,-202 -521,-202 -186,0 -373,67 -520,202 147,134 334,202 520,202z"
       id="path500"
       style="fill:#ffffff" /><path
       class="fil0"
       d="M1388 1959c165,-165 380,-247 595,-247 216,0 431,82 596,247 13,13 13,35 0,49 -165,164 -380,247 -596,247 -215,0 -430,-83 -595,-247 -13,-14 -13,-36 0,-49zm595 -177c-186,0 -373,67 -520,201 147,135 334,202 520,202 187,0 374,-67 521,-202 -147,-134 -334,-201 -521,-201z"
       id="path502"
       style="fill:#ffffff" /><path
       class="fil0"
       d="M2530 817l0 0c13,-13 35,-13 49,0 164,165 246,380 246,596 0,215 -82,431 -246,595 -14,14 -36,14 -49,0l0 0c-165,-164 -247,-380 -247,-595 0,-216 82,-431 247,-596zm24 75c-134,147 -201,334 -201,521 0,186 67,373 201,520 135,-147 202,-334 202,-520 0,-187 -67,-374 -202,-521z"
       id="path504"
       style="fill:#ffffff" /><path
       class="fil0"
       d="M1983 321c-134,148 -201,334 -201,521 0,187 67,373 201,520 135,-147 202,-333 202,-520 0,-187 -67,-373 -202,-521zm-271 521c0,-216 83,-431 247,-595 13,-14 35,-14 49,0 164,164 247,379 247,595 0,215 -83,431 -247,595 -14,14 -36,14 -49,0 -164,-164 -247,-380 -247,-595z"
       id="path506"
       style="fill:#ffffff" /><path
       class="fil0"
       d="M842 1362c134,-147 202,-333 202,-520 0,-187 -68,-373 -202,-521 -135,148 -202,334 -202,521 0,187 67,373 202,520zm271 -520c0,215 -82,431 -247,595 -13,14 -35,14 -49,0 -164,-164 -246,-380 -246,-595 0,-216 82,-431 246,-595 14,-14 36,-14 49,0 165,164 247,379 247,595z"
       id="path508"
       style="fill:#ffffff" /><path
       class="fil0"
       d="M2008 296l0 0c-164,164 -380,246 -595,246 -216,0 -431,-82 -596,-246l0 0c-13,-14 -13,-36 0,-49 165,-165 380,-247 596,-247 215,0 431,82 595,247 14,13 14,35 0,49zm-595 177c186,0 373,-67 520,-202 -147,-134 -334,-202 -520,-202 -187,0 -374,68 -521,202 147,135 334,202 521,202z"
       id="path510"
       style="fill:#ffffff" /><path
       class="fil0"
       d="M1959 2579c-164,-165 -247,-380 -247,-596 0,-215 83,-430 247,-595 13,-13 35,-13 49,0 164,165 247,380 247,595 0,216 -83,431 -247,596 -14,13 -36,13 -49,0zm-177 -596c0,187 67,374 201,521 135,-147 202,-334 202,-521 0,-186 -67,-373 -202,-520 -134,147 -201,334 -201,520z"
       id="path512"
       style="fill:#ffffff" /><path
       class="fil0"
       d="M866 1388c165,165 247,380 247,595 0,216 -82,431 -247,596 -13,13 -35,13 -49,0 -164,-165 -246,-380 -246,-596 0,-215 82,-430 246,-595 14,-13 36,-13 49,0zm178 595c0,-186 -68,-373 -202,-520 -135,147 -202,334 -202,520 0,187 67,374 202,521 134,-147 202,-334 202,-521z"
       id="path514"
       style="fill:#ffffff" /><path
       class="fil0"
       d="M2008 2530l0 0c14,13 14,35 0,49 -164,164 -380,246 -595,246 -216,0 -431,-82 -596,-246 -13,-14 -13,-36 0,-49l0 0c165,-165 380,-247 596,-247 215,0 431,82 595,247zm-75 24c-147,-134 -334,-201 -520,-201 -187,0 -374,67 -521,201 147,135 334,202 521,202 186,0 373,-67 520,-202z"
       id="path516"
       style="fill:#ffffff" /><path
       class="fil0"
       d="M1413 471c260,0 495,105 666,276 170,170 275,406 275,666 0,260 -105,495 -275,666 -171,170 -406,275 -666,275 -260,0 -496,-105 -666,-275 -171,-171 -276,-406 -276,-666 0,-260 105,-496 276,-666 170,-171 406,-276 666,-276zm616 325c-157,-158 -375,-256 -616,-256 -241,0 -459,98 -617,256 -158,158 -256,376 -256,617 0,241 98,459 256,616 158,158 376,256 617,256 241,0 459,-98 616,-256 158,-157 256,-375 256,-616 0,-241 -98,-459 -256,-617z"
       id="path518"
       style="fill:#ffffff" /><path
       class="fil0"
       d="M1413 935c132,0 251,53 337,140 87,86 140,206 140,338 0,132 -53,251 -140,337 -86,87 -205,140 -337,140 -132,0 -252,-53 -338,-140 -87,-86 -140,-205 -140,-337 0,-132 53,-252 140,-338 86,-87 206,-140 338,-140zm288 189c-74,-74 -176,-120 -288,-120 -113,0 -215,46 -289,120 -74,74 -120,176 -120,289 0,112 46,214 120,288 74,74 176,120 289,120 112,0 214,-46 288,-120 74,-74 120,-176 120,-288 0,-113 -46,-215 -120,-289z"
       id="path520"
       style="fill:#ffffff" /></g></svg>