<?xml version="1.0" encoding="UTF-8" standalone="no"?>
<svg
   xmlns:dc="http://purl.org/dc/elements/1.1/"
   xmlns:cc="http://creativecommons.org/ns#"
   xmlns:rdf="http://www.w3.org/1999/02/22-rdf-syntax-ns#"
   xmlns:svg="http://www.w3.org/2000/svg"
   xmlns="http://www.w3.org/2000/svg"
   xmlns:sodipodi="http://sodipodi.sourceforge.net/DTD/sodipodi-0.dtd"
   xmlns:inkscape="http://www.inkscape.org/namespaces/inkscape"
   height="2.82534in"
   style="shape-rendering:geometricPrecision; text-rendering:geometricPrecision; image-rendering:optimizeQuality; fill-rule:evenodd; clip-rule:evenodd"
   version="1.1"
   viewBox="0 0 2825 2825"
   width="2.82534in"
   xml:space="preserve"
   id="svg672"
   sodipodi:docname="8.svg"
   inkscape:version="0.92.2 (5c3e80d, 2017-08-06)"><metadata
     id="metadata676"><rdf:RDF><cc:Work
         rdf:about=""><dc:format>image/svg+xml</dc:format><dc:type
           rdf:resource="http://purl.org/dc/dcmitype/StillImage" /></cc:Work></rdf:RDF></metadata><sodipodi:namedview
     pagecolor="#ffffff"
     bordercolor="#666666"
     borderopacity="1"
     objecttolerance="10"
     gridtolerance="10"
     guidetolerance="10"
     inkscape:pageopacity="0"
     inkscape:pageshadow="2"
     inkscape:window-width="899"
     inkscape:window-height="667"
     id="namedview674"
     showgrid="false"
     inkscape:zoom="1.6790245"
     inkscape:cx="135.61632"
     inkscape:cy="135.61632"
     inkscape:window-x="0"
     inkscape:window-y="28"
     inkscape:window-maximized="0"
     inkscape:current-layer="svg672" /><defs
     id="defs635"><style
       type="text/css"
       id="style633"><![CDATA[
    .fil0 {fill:black;fill-rule:nonzero}
   ]]></style></defs><g
     id="Layer_x0020_1"
     style="fill:#ffffff"><path
       class="fil0"
       d="M1872 529l-919 0c-19,0 -34,-16 -34,-35 0,-10 4,-19 10,-25l459 -459c14,-13 36,-13 49,0l460 459c13,14 13,36 0,50 -7,6 -16,10 -25,10l0 0zm-835 -70l751 0 -375 -375 -376 375z"
       id="path637"
       style="fill:#ffffff" /><path
       class="fil0"
       d="M1788 529l-751 0 376 375 375 -375zm-835 -70l919 0 0 0c9,0 18,4 25,10 13,14 13,36 0,50l-460 459c-13,13 -35,13 -49,0l-459 -459c-6,-6 -10,-15 -10,-25 0,-19 15,-35 34,-35z"
       id="path639"
       style="fill:#ffffff" /><path
       class="fil0"
       d="M1872 1447l-919 0c-19,0 -34,-15 -34,-34 0,-10 4,-19 10,-25l459 -459c14,-14 36,-14 49,0l460 459c13,14 13,36 0,49 -7,7 -16,10 -25,10l0 0zm-835 -69l751 0 -375 -376 -376 376z"
       id="path641"
       style="fill:#ffffff" /><path
       class="fil0"
       d="M1788 2366l-751 0 376 376 375 -376zm-835 -69l919 0 0 0c9,0 18,3 25,10 13,13 13,35 0,49l-460 459c-13,14 -35,14 -49,0l-459 -459c-6,-6 -10,-15 -10,-25 0,-19 15,-34 34,-34z"
       id="path643"
       style="fill:#ffffff" /><path
       class="fil0"
       d="M1872 2366l-919 0c-19,0 -34,-16 -34,-35 0,-9 4,-18 10,-25l459 -459c14,-13 36,-13 49,0l460 460c13,13 13,35 0,49 -7,7 -16,10 -25,10l0 0zm-835 -69l751 0 -375 -376 -376 376z"
       id="path645"
       style="fill:#ffffff" /><path
       class="fil0"
       d="M1788 1447l-751 0 376 376 375 -376zm-835 -69l919 0 0 0c9,0 18,3 25,10 13,14 13,36 0,49l-460 460c-13,13 -35,13 -49,0l-459 -459c-6,-7 -10,-16 -10,-25 0,-20 15,-35 34,-35z"
       id="path647"
       style="fill:#ffffff" /><path
       class="fil0"
       d="M1778 49c377,100 677,344 858,658l0 0c180,313 242,695 141,1071 -101,377 -345,677 -658,858l0 0c-313,180 -695,242 -1072,141 -376,-101 -677,-345 -857,-658l0 0c-181,-313 -242,-695 -141,-1072 100,-376 344,-677 658,-857l0 0c313,-181 695,-242 1071,-141zm798 692c-172,-297 -457,-529 -816,-625 -358,-96 -721,-38 -1019,134l0 0 0 0c-297,171 -529,457 -625,815 -96,358 -38,722 134,1019l0 0 0 0c171,298 457,530 815,626 358,96 722,38 1019,-134l0 0 0 0c298,-172 530,-457 626,-816 96,-358 38,-721 -134,-1019l0 0 0 0z"
       id="path649"
       style="fill:#ffffff" /><path
       class="fil0"
       d="M529 953l0 919c0,19 -16,35 -35,35 -10,0 -19,-4 -25,-11l-459 -459c-13,-13 -13,-35 0,-49l459 -459c14,-14 36,-14 50,0 6,7 10,15 10,24l0 0zm-70 835l0 -751 -375 376 375 375z"
       id="path651"
       style="fill:#ffffff" /><path
       class="fil0"
       d="M529 1037l0 751 375 -375 -375 -376zm-70 835l0 -919 0 0c0,-9 4,-17 10,-24 14,-14 36,-14 50,0l459 459c13,14 13,36 0,49l-459 459c-6,7 -15,11 -25,11 -19,0 -35,-16 -35,-35z"
       id="path653"
       style="fill:#ffffff" /><path
       class="fil0"
       d="M1447 953l0 919c0,19 -15,35 -34,35 -10,0 -19,-4 -25,-11l-459 -459c-14,-13 -14,-35 0,-49l459 -459c14,-14 36,-14 49,0 7,7 10,15 10,24l0 0zm-69 835l0 -751 -376 376 376 375z"
       id="path655"
       style="fill:#ffffff" /><path
       class="fil0"
       d="M2366 1037l0 751 376 -375 -376 -376zm-69 835l0 -919 0 0c0,-9 3,-17 10,-24 13,-14 35,-14 49,0l459 459c14,14 14,36 0,49l-459 459c-6,7 -15,11 -25,11 -19,0 -34,-16 -34,-35z"
       id="path657"
       style="fill:#ffffff" /><path
       class="fil0"
       d="M2366 953l0 919c0,19 -16,35 -35,35 -9,0 -18,-4 -25,-11l-459 -459c-13,-13 -13,-35 0,-49l460 -459c13,-14 35,-14 49,0 7,7 10,15 10,24l0 0zm-69 835l0 -751 -376 376 376 375z"
       id="path659"
       style="fill:#ffffff" /><path
       class="fil0"
       d="M1447 1037l0 751 376 -375 -376 -376zm-69 835l0 -919 0 0c0,-9 3,-17 10,-24 14,-14 36,-14 49,0l460 459c13,14 13,36 0,49l-459 459c-7,7 -16,11 -25,11 -20,0 -35,-16 -35,-35z"
       id="path661"
       style="fill:#ffffff" /><path
       class="fil0"
       d="M2366 495l0 429c0,19 -16,35 -35,35l-430 0c-19,0 -34,-16 -34,-35l0 -429c0,-20 15,-35 34,-35l430 0c19,0 35,15 35,35zm-70 394l0 -360 -360 0 0 360 360 0z"
       id="path663"
       style="fill:#ffffff" /><path
       class="fil0"
       d="M529 2296l360 0 0 -360 -360 0 0 360zm395 70l-429 0c-20,0 -35,-16 -35,-35l0 -430c0,-19 15,-34 35,-34l429 0c19,0 35,15 35,34l0 430c0,19 -16,35 -35,35z"
       id="path665"
       style="fill:#ffffff" /><path
       class="fil0"
       d="M2331 2366l-430 0c-19,0 -34,-16 -34,-35l0 -430c0,-19 15,-34 34,-34l430 0c19,0 35,15 35,34l0 430c0,19 -16,35 -35,35zm-395 -70l360 0 0 -360 -360 0 0 360z"
       id="path667"
       style="fill:#ffffff" /><path
       class="fil0"
       d="M529 529l0 360 360 0 0 -360 -360 0zm-69 395l0 -429c0,-20 15,-35 35,-35l429 0c19,0 35,15 35,35l0 429c0,19 -16,35 -35,35l-429 0c-20,0 -35,-16 -35,-35z"
       id="path669"
       style="fill:#ffffff" /></g></svg>