<?xml version="1.0" encoding="UTF-8" standalone="no"?>
<svg
   xmlns:dc="http://purl.org/dc/elements/1.1/"
   xmlns:cc="http://creativecommons.org/ns#"
   xmlns:rdf="http://www.w3.org/1999/02/22-rdf-syntax-ns#"
   xmlns:svg="http://www.w3.org/2000/svg"
   xmlns="http://www.w3.org/2000/svg"
   xmlns:sodipodi="http://sodipodi.sourceforge.net/DTD/sodipodi-0.dtd"
   xmlns:inkscape="http://www.inkscape.org/namespaces/inkscape"
   height="2.82525in"
   style="shape-rendering:geometricPrecision; text-rendering:geometricPrecision; image-rendering:optimizeQuality; fill-rule:evenodd; clip-rule:evenodd"
   version="1.1"
   viewBox="0 0 2825 2825"
   width="2.82525in"
   xml:space="preserve"
   id="svg3805"
   sodipodi:docname="foo.svg"
   inkscape:version="0.92.2 (5c3e80d, 2017-08-06)"><metadata
     id="metadata3809"><rdf:RDF><cc:Work
         rdf:about=""><dc:format>image/svg+xml</dc:format><dc:type
           rdf:resource="http://purl.org/dc/dcmitype/StillImage" /><dc:title></dc:title></cc:Work></rdf:RDF></metadata><sodipodi:namedview
     pagecolor="#ffffff"
     bordercolor="#666666"
     borderopacity="1"
     objecttolerance="10"
     gridtolerance="10"
     guidetolerance="10"
     inkscape:pageopacity="0"
     inkscape:pageshadow="2"
     inkscape:window-width="2560"
     inkscape:window-height="1341"
     id="namedview3807"
     showgrid="false"
     inkscape:zoom="2.116332"
     inkscape:cx="-136.56163"
     inkscape:cy="136.62035"
     inkscape:window-x="0"
     inkscape:window-y="28"
     inkscape:window-maximized="1"
     inkscape:current-layer="Layer_x0020_1"
     inkscape:pagecheckerboard="true" /><defs
     id="defs3776"><style
       type="text/css"
       id="style3774"><![CDATA[
    .fil0 {fill:black;fill-rule:nonzero}
   ]]></style></defs><g
     id="Layer_x0020_1"><path
       class="fil0"
       d="M1778 48c377,101 677,345 858,658l0 0c180,314 242,695 141,1072 -101,377 -345,677 -658,858l0 0c-313,180 -695,242 -1072,141 -376,-101 -677,-345 -857,-658l0 0c-181,-313 -242,-695 -142,-1072 101,-376 345,-677 658,-857l0 0c314,-181 695,-242 1072,-142zm798 693c-172,-297 -457,-530 -816,-626 -358,-96 -721,-37 -1019,135l0 -1 0 1c-297,171 -530,457 -626,815 -96,358 -37,721 135,1019l-1 0 1 0c171,298 457,530 815,626 358,96 721,38 1019,-134l0 0 0 0c298,-172 530,-457 626,-816 96,-358 38,-721 -134,-1019l0 0 0 0z"
       id="path3778"
       style="fill:#ffffff;fill-opacity:1" /><path
       class="fil0"
       d="M1432 649l1375 733c17,9 23,30 14,47 -6,12 -18,18 -30,18l0 0 -1378 0c-20,0 -35,-15 -35,-34l0 -735c0,-19 15,-34 35,-34 7,0 13,2 19,5zm1220 729l-1205 -642 0 642 1205 0z"
       id="path3780"
       style="fill:#ffffff;fill-opacity:1" /><path
       class="fil0"
       d="M1394 2176l-1376 -733c-16,-9 -23,-30 -14,-47 6,-11 18,-18 31,-18l0 0 1378 0c19,0 34,15 34,35l0 734c0,19 -15,35 -34,35 -7,0 -14,-2 -19,-6zm-1221 -729l1205 642 0 -642 -1205 0z"
       id="path3782"
       style="fill:#ffffff;fill-opacity:1" /><path
       class="fil0"
       d="M2176 1432l-733 1375c-9,17 -30,23 -47,14 -11,-6 -18,-18 -18,-30l0 0 0 -1378c0,-20 15,-35 35,-35l734 0c19,0 35,15 35,35 0,7 -2,13 -6,19zm-729 1220l642 -1205 -642 0 0 1205z"
       id="path3784"
       style="fill:#ffffff;fill-opacity:1" /><path
       class="fil0"
       d="M649 1394l733 -1376c9,-16 30,-23 47,-14 12,6 18,18 18,31l0 0 0 1378c0,19 -15,34 -34,34l-735 0c-19,0 -34,-15 -34,-34 0,-7 2,-14 5,-19zm729 -1221l-642 1205 642 0 0 -1205z"
       id="path3786"
       style="fill:#ffffff;fill-opacity:1" /><path
       class="fil0"
       d="M1431 719c-19,4 -37,-7 -42,-26 -4,-19 8,-37 26,-42 3,0 911,-217 1271,173 13,14 12,36 -2,49 -14,13 -36,12 -49,-2 -332,-360 -1202,-153 -1204,-152z"
       id="path3788"
       style="fill:#ffffff;fill-opacity:1" /><path
       class="fil0"
       d="M1394 2106c19,-4 38,8 42,26 4,19 -7,38 -26,42 -3,1 -911,217 -1271,-173 -13,-14 -12,-36 2,-49 14,-13 36,-12 49,2 332,360 1202,153 1204,152z"
       id="path3790"
       style="fill:#ffffff;fill-opacity:1" /><path
       class="fil0"
       d="M2106 1431c-4,-19 8,-37 26,-42 19,-4 38,8 42,26 1,3 217,911 -173,1271 -14,13 -36,12 -49,-2 -13,-14 -12,-36 2,-49 360,-332 153,-1202 152,-1204z"
       id="path3792"
       style="fill:#ffffff;fill-opacity:1" /><path
       class="fil0"
       d="M719 1394c4,19 -7,38 -26,42 -19,4 -37,-7 -42,-26 0,-3 -217,-911 173,-1271 14,-13 36,-12 49,2 13,14 12,36 -2,49 -360,332 -153,1202 -152,1204z"
       id="path3794"
       style="fill:#ffffff;fill-opacity:1" /><path
       class="fil0"
       d="M1447 689c-8,17 -29,24 -46,15 -17,-9 -24,-30 -15,-47 1,-1 266,-520 831,-395 18,4 30,23 26,41 -4,19 -23,31 -41,27 -513,-114 -754,358 -755,359z"
       id="path3796"
       style="fill:#ffffff;fill-opacity:1" /><path
       class="fil0"
       d="M1378 2136c9,-17 30,-23 46,-14 17,8 24,29 15,46 -1,2 -266,521 -830,395 -19,-4 -31,-22 -27,-41 5,-19 23,-30 42,-26 512,113 753,-358 754,-360z"
       id="path3798"
       style="fill:#ffffff;fill-opacity:1" /><path
       class="fil0"
       d="M2136 1447c-17,-8 -23,-29 -14,-46 8,-17 29,-24 46,-15 2,1 521,266 395,831 -4,18 -22,30 -41,26 -19,-4 -30,-23 -26,-41 113,-513 -358,-754 -360,-755z"
       id="path3800"
       style="fill:#ffffff;fill-opacity:1" /><path
       class="fil0"
       d="M689 1378c17,9 24,30 15,46 -9,17 -30,24 -47,15 -1,-1 -520,-266 -395,-830 4,-19 23,-31 41,-27 19,5 31,23 27,42 -114,512 358,753 359,754z"
       id="path3802"
       style="fill:#ffffff;fill-opacity:1" /></g></svg>